<svg enable-background="new 0 0 390.5 410" height="5" viewBox="0 0 390.5 410" width="15" xmlns="http://www.w3.org/2000/svg"><path d="m385.435 401.609c-17.545.01-35.102-.01-52.646.01-2.96-.135-5.335-2.705-5.625-5.586-.3-3.064-.079-6.148-.125-9.215-.063-1.26.341-2.959-1.034-3.654-2.239-1.275-5.971-.791-6.989 1.83-.227 3.424.074 6.869-.125 10.299-.115 2.285-1.227 4.695-3.37 5.727-1.92.994-4.141.529-6.205.597-77.358-.017-154.727.014-232.08-.017-2.734-.233-4.966-2.561-5.341-5.233-.561-4.097.137-8.271-.354-12.361-1.819-2.271-5.976-1.935-7.615.399-.42 3.781.102 7.625-.255 11.421-.229 2.079-1.335 4.155-3.255 5.12-2.029 1.074-4.386.615-6.58.671-16.18 0-32.364-.017-48.545.004 5.075-6.646 10.46-13.045 15.564-19.664-4.477-6.511-8.939-13.028-13.341-19.59 12.229-.035 24.46.039 36.689-.035-.011-3-.011-5.996-.024-8.987-.029-2.125.835-4.269 2.454-5.66 2.83-2.474 6.517-3.654 10.11-4.513 7.09-1.516 14.5-1.521 21.604-.09 3.767.847 7.649 2.021 10.609 4.603 1.495 1.336 2.774 3.426 2.135 5.481-1.295 2.875-.42 6.121-.68 9.166 3.563.063 7.135.024 10.7.024-14.91-44.063-29.932-88.092-44.881-132.141-2.915-8.564-5.852-17.121-8.744-25.689.215-.211.64-.631.854-.84 47.521-35.361 94.892-70.931 142.405-106.296 49.575 34.8 99.215 69.505 148.771 104.335-.221.641-.415 1.289-.613 1.936-2.729 8.854-5.495 17.698-8.222 26.556-13.642 44.045-27.285 88.084-40.903 132.135 3.42.021 6.84.006 10.266.01-.125-3.209.359-6.471-.405-9.618-.396-1.899.771-3.728 2.109-4.966 2.932-2.62 6.813-3.801 10.575-4.659 8.431-1.681 17.354-1.535 25.568 1.129 3.229 1.181 6.864 2.84 8.239 6.239.689 1.455.034 2.955-.455 4.355-.233 2.495-.022 5.012-.085 7.52 12.575.007 25.146-.004 37.716.007-4.415 6.545-8.87 13.069-13.352 19.573 5.052 6.636 10.537 12.953 15.481 19.667zm-49.654-2.732c14.67-.055 29.346.021 44.016-.039-4.2-5.465-8.58-10.791-12.851-16.193-.734-.69.335-1.444.625-2.065 3.51-5.129 7.073-10.226 10.465-15.435-14.739-.069-29.479-.021-44.222-.024-1.858.209-2.67-1.892-3.988-2.795-.12 10.34.005 20.68-.062 31.021.023 1.625-.011 3.527 1.295 4.729 1.291 1.149 3.142.774 4.722.801zm8-46.199c-.125-2.631-2.665-4.033-4.767-5.039-5.556-2.4-11.727-2.979-17.716-2.836-5.188.221-10.5.971-15.199 3.297-1.806.959-4 2.363-3.818 4.703 4.158 1.525 8.92.875 12.823 3.195 2.432 1.334 3.835 4.084 3.825 6.824.029 5.996.034 11.996-.011 17.996 2.545-1.188 5.479-1.41 8.114-.336.005-5.896-.035-11.789.011-17.688-.024-2.907 1.614-5.776 4.271-7.045 3.862-2.091 8.491-1.366 12.467-3.071zm-7.826-148.533c.148-.432.285-.865.404-1.307-48.313-33.885-96.643-67.749-144.961-101.629-.604-.73-1.238.06-1.796.404-30.795 23.051-61.63 46.051-92.438 69.08-14.665 11.01-29.439 21.875-44.03 32.975-.875.48-1.64 1.137-2.438 1.73 2.819 8.274 5.609 16.556 8.449 24.827 15.245 44.941 30.54 89.879 45.83 134.81-8.716.19-17.436.006-26.148.096-2.057.375-2.972-1.858-4.375-2.896-.017 10.535.01 21.068-.012 31.601-.005 1.649.189 3.67 1.774 4.59 1.565.824 3.4.354 5.091.438 76.005-.01 152.018-.004 228.021-.004 1.604-.075 3.29.313 4.84-.235 1.819-.813 2.069-3.056 2.035-4.81-.057-10.711.08-21.416-.064-32.121-1.266 1.025-2.369 2.229-3.471 3.421-8.875-.025-17.75.034-26.625-.029 13.944-44.948 27.83-89.92 41.771-134.871 2.713-8.692 5.293-17.426 8.143-26.07zm-247.205 148.277c-.641-2.645-3.189-4.02-5.495-5.004-5.029-2.035-10.524-2.648-15.915-2.641-5.074.063-10.234.701-14.975 2.609-2.312.981-4.852 2.395-5.466 5.051 3.386 1.715 7.386 1.131 10.904 2.465 3.119.895 5.869 3.58 5.892 6.984.204 6.291.015 12.592.095 18.887 2.476-1.215 5.359-1.295 7.925-.31-.04-5.702-.015-11.405-.02-17.11-.046-2.295.675-4.689 2.398-6.271 2.21-2.035 5.289-2.615 8.164-3.035 2.188-.383 4.602-.277 6.493-1.625zm-27.75 42.371c.05-10.795.04-21.596.005-32.391-.984.865-1.935 1.781-2.84 2.734-15.125 0-30.25-.054-45.375-.023 3.675 5.74 7.609 11.324 11.49 16.934-4.352 5.66-8.91 11.156-13.302 16.785 15.602.066 31.205-.004 46.807.041 2.104-.019 3.29-2.189 3.215-4.08z" fill="#006932"/><path d="m379.796 398.838c-14.671.061-29.346-.016-44.016.039-1.58-.027-3.432.348-4.722-.805-1.306-1.199-1.271-3.104-1.295-4.729.063-10.345-.062-20.685.062-31.021 1.318.906 2.13 3.006 3.988 2.795 14.739.006 29.479-.045 44.222.025-3.392 5.211-6.955 10.305-10.465 15.436-.29.619-1.359 1.375-.625 2.064 4.271 5.405 8.65 10.731 12.851 16.196z" fill="none"/><path d="m339.015 347.639c2.102 1.006 4.642 2.408 4.767 5.039-3.977 1.705-8.604.98-12.467 3.074-2.653 1.268-4.295 4.137-4.271 7.045-.046 5.896-.006 11.791-.011 17.688-2.636-1.075-5.569-.852-8.114.334.045-6 .04-12 .011-17.993.01-2.74-1.396-5.49-3.825-6.826-3.903-2.315-8.665-1.67-12.823-3.19-.182-2.345 2.016-3.744 3.818-4.705 4.699-2.324 10.011-3.074 15.199-3.295 5.991-.152 12.162.428 17.716 2.829z" fill="none"/><path d="m336.361 202.837c-.12.441-.257.875-.405 1.307-2.852 8.645-5.431 17.379-8.146 26.068-13.938 44.951-27.823 89.92-41.771 134.871 8.875.063 17.75.004 26.625.028 1.102-1.188 2.205-2.395 3.471-3.42.146 10.705.011 21.41.064 32.121.034 1.754-.216 3.994-2.035 4.81-1.55.551-3.233.159-4.84.235-76.006 0-152.018-.006-228.021.004-1.689-.084-3.524.386-5.091-.438-1.585-.92-1.779-2.938-1.773-4.59.021-10.528-.006-21.063.011-31.601 1.403 1.035 2.318 3.271 4.375 2.896 8.715-.09 17.436.097 26.148-.097-15.29-44.93-30.585-89.864-45.83-134.809-2.84-8.271-5.63-16.553-8.449-24.827.801-.594 1.563-1.25 2.438-1.73 14.591-11.1 29.365-21.965 44.03-32.975 30.811-23.029 61.646-46.029 92.438-69.08.558-.345 1.189-1.135 1.796-.404 48.323 33.882 96.654 67.747 144.965 101.631zm-8.681 1.855c-.227-.164-.676-.49-.898-.65-45.355-31.489-90.711-62.975-136.04-94.494-41.905 31.34-83.735 62.779-125.63 94.141-1.722 1.299-3.455 2.584-5.165 3.895 2.56 7.539 5.09 15.09 7.645 22.637 14.96 44.516 30.025 88.992 44.945 133.521 55.739.09 111.479.01 167.22.04 13.455-44.78 27.036-89.524 40.4-134.329 2.618-8.219 4.974-16.525 7.523-24.761zm-31.126 180.417c0-2.211-.561-3.955-1.665-5.246-1.114-1.27-2.421-1.904-3.91-1.904-1.636 0-3.146.99-4.556 2.949v-10.564h-.715l-4.399 1.791.216.584c.444-.176.819-.26 1.114-.26.261 0 .478.074.646.221.175.135.295.385.37.771.085.381.125 1.405.125 3.045v15.041c.914.618 1.813 1.073 2.68 1.396.87.307 1.75.455 2.585.455.551 0 1.085-.063 1.604-.189 1.199-.278 2.312-.895 3.329-1.834 1.723-1.586 2.576-3.666 2.576-6.256zm-15.893 7.854v-.59c-.705 0-1.165-.08-1.433-.211-.261-.154-.465-.369-.585-.674-.136-.305-.204-.91-.204-1.811v-11.724h-.704l-4.382 1.789.223.586c.43-.151.772-.229 1.08-.229.277 0 .493.06.652.193.146.125.274.365.348.705.09.455.135 1.477.135 3.039v5.637c0 .895-.075 1.494-.205 1.814-.141.32-.335.539-.58.68-.239.135-.715.199-1.415.199v.59h7.07zm-1.925-21.014c0-.451-.16-.83-.479-1.146-.305-.305-.688-.459-1.135-.459-.455 0-.84.154-1.155.459-.305.314-.465.695-.465 1.146 0 .445.16.824.485 1.145.305.314.688.471 1.135.471.445 0 .83-.153 1.135-.471.319-.321.479-.699.479-1.145zm-7.507 13.16c0-2.211-.55-3.955-1.664-5.246-1.113-1.27-2.421-1.904-3.908-1.904-1.625 0-3.155.99-4.553 2.949v-10.564h-.721l-4.398 1.791.217.584c.455-.176.817-.26 1.125-.26.26 0 .476.074.646.221.176.135.295.385.375.771.074.381.114 1.405.114 3.045v15.041c.91.618 1.812 1.073 2.687 1.396.88.307 1.729.455 2.574.455.556 0 1.085-.063 1.604-.188 1.198-.285 2.305-.9 3.335-1.84 1.723-1.581 2.567-3.661 2.567-6.251zm-15.193 5.719v-.889c-.637.635-1.064 1.014-1.295 1.151-.146.078-.285.109-.45.109-.149 0-.313-.052-.425-.156-.132-.104-.223-.315-.271-.629-.046-.312-.075-1.16-.075-2.552v-4.93c0-1.41-.09-2.34-.3-2.789-.285-.694-.75-1.211-1.37-1.535-.84-.436-1.902-.655-3.188-.655-1.688 0-3 .387-3.938 1.146-.938.764-1.397 1.61-1.397 2.521 0 .473.113.854.375 1.129.255.28.567.416.965.416.415 0 .729-.131.979-.401.257-.259.375-.634.375-1.125l-.033-.923c0-.471.198-.887.604-1.241.396-.361.926-.541 1.602-.541.864 0 1.545.27 1.989.813.466.529.699 1.525.699 2.984v.561c-2.494.92-4.31 1.689-5.364 2.324-1.074.641-1.846 1.316-2.271 2.045-.32.521-.478 1.125-.478 1.846 0 1.119.314 2.025.978 2.723.653.688 1.479 1.027 2.489 1.027.641 0 1.266-.131 1.823-.396.388-.18 1.313-.854 2.819-2.01.011.861.16 1.476.477 1.83.307.375.722.545 1.256.545 1.094-.001 2.219-.804 3.425-2.398zm-15.081 2.135v-.59h-.78c-.515 0-.989-.115-1.47-.375-.325-.186-.545-.41-.655-.686-.135-.354-.204-1.064-.204-2.154v-13.971c0-1.045.069-1.75.188-2.09.118-.343.35-.604.692-.765.46-.25.938-.369 1.449-.369h.78v-.584h-9.261v.584h.761c.505 0 .989.125 1.46.384.335.186.556.426.66.686.14.344.198 1.061.198 2.154v6.221h-9.994v-6.221c0-1.045.073-1.75.193-2.09.119-.343.347-.604.67-.765.455-.25.939-.367 1.455-.367h.767v-.586h-9.244v.586h.778c.494 0 .983.125 1.46.382.313.186.529.426.642.686.141.344.215 1.061.215 2.154v13.971c0 1.289-.125 2.104-.391 2.449-.404.516-1.051.766-1.926.766h-.778v.59h9.244v-.59h-.767c-.516 0-1-.115-1.455-.375-.323-.186-.551-.41-.659-.686-.131-.354-.204-1.064-.204-2.154v-6.586h9.994v6.586c0 1.289-.125 2.104-.396 2.449-.396.516-1.045.766-1.925.766h-.761v.59zm-34.035 0 1.86-5.85-.518-.1c-.561 1.319-1.114 2.305-1.671 2.924-.55.621-1.175 1.055-1.835 1.295-.67.246-1.835.375-3.479.375h-1.58c-1.405 0-2.23-.063-2.49-.17-.265-.109-.465-.269-.59-.5-.175-.324-.261-.933-.261-1.814v-13.603c0-1.268.086-2.069.261-2.399.165-.336.479-.621.95-.836.46-.22 1.27-.324 2.402-.313v-.584h-9.769v.584h.805c.815 0 1.431.229 1.853.711.296.33.442 1.17.442 2.51v13.972c0 1.215-.119 1.994-.335 2.334-.395.586-1.05.881-1.96.881h-.805v.591h16.716v-.005zm-17.75 0v-.59c-.88-.045-1.564-.295-2.064-.721-.483-.43-1.033-1.365-1.641-2.805l-7.515-17.949h-.525l-7.608 17.76c-.654 1.561-1.256 2.59-1.796 3.1-.271.256-.846.471-1.75.615v.59h6.819v-.59c-1.045-.08-1.71-.229-2.034-.479-.306-.25-.471-.541-.471-.871 0-.414.181-1.035.54-1.869l1.439-3.385h8.369l1.284 3.08c.426 1 .642 1.735.642 2.205 0 .354-.154.649-.46.896-.307.239-.881.379-1.739.42v.59h8.51zm-31.35-.004v-.586c-.66 0-1.137-.049-1.392-.145-.386-.144-.83-.459-1.354-.949-.33-.355-1.04-1.186-2.091-2.49l-3.71-4.734 3.729-3.436c.7-.631 1.335-1.07 1.896-1.314.591-.25 1.306-.381 2.181-.4v-.524h-6.335v.524c.396.021.68.105.858.261.187.16.267.336.267.541 0 .129-.045.269-.136.396-.119.188-.564.64-1.364 1.357l-3.689 3.4v-14.516h-.729l-4.325 1.788.274.587c.443-.183.779-.271 1-.271.273 0 .489.07.659.205.165.145.295.41.359.772.096.382.125 1.4.125 3.063v13.281c0 .854-.08 1.459-.239 1.799-.115.24-.296.421-.511.535-.37.181-.93.267-1.67.267v.584h7.391v-.584c-.796-.011-1.33-.076-1.574-.201-.25-.129-.437-.34-.569-.635-.11-.296-.189-.921-.189-1.859v-4.817l4.46 5.705c.42.539.63.924.63 1.17 0 .199-.068.354-.21.465-.146.109-.42.164-.813.174v.586h7.073v.001zm-16.65.004v-.59c-.694 0-1.165-.076-1.439-.211-.244-.154-.443-.359-.55-.625-.148-.324-.226-.949-.226-1.859v-6.225c0-1.314-.109-2.301-.34-2.93-.355-.916-.801-1.57-1.37-1.961-.575-.404-1.255-.605-2.05-.605-1.552 0-3.171 1.021-4.87 3.057v-3.051h-.69l-4.395 1.789.238.58c.404-.154.75-.229 1.062-.229.271 0 .5.065.655.19.175.149.283.406.363.791.08.381.12 1.438.12 3.188v5.401c0 1.054-.131 1.765-.396 2.146-.255.365-.755.55-1.5.55h-.325v.59h7.235 1.27 7.206zm-16.186-2.135v-.889c-.631.635-1.074 1.014-1.289 1.151-.131.078-.28.109-.455.109-.16 0-.29-.052-.427-.156-.118-.104-.21-.315-.255-.629-.061-.312-.08-1.16-.08-2.552v-4.93c0-1.41-.101-2.34-.29-2.789-.295-.694-.766-1.211-1.391-1.535-.83-.436-1.895-.655-3.185-.655-1.69 0-3.006.387-3.94 1.146-.938.764-1.398 1.61-1.398 2.521 0 .473.125.854.375 1.129.256.28.568.416.976.416s.721-.131.979-.401c.256-.259.375-.634.375-1.125l-.023-.923c0-.471.188-.887.595-1.241.386-.361.926-.541 1.586-.541.885 0 1.556.27 2.01.813.455.529.694 1.525.694 2.984v.561c-2.505.92-4.3 1.689-5.375 2.324-1.085.641-1.824 1.316-2.27 2.045-.307.521-.477 1.125-.477 1.846 0 1.119.314 2.025.979 2.723.66.688 1.479 1.027 2.483 1.027.649 0 1.267-.131 1.835-.396.387-.18 1.319-.854 2.819-2.01.011.861.17 1.476.48 1.83.305.375.72.545 1.238.545 1.102-.001 2.242-.804 3.431-2.398zm-16.194-3.775c0-1.408-.505-2.609-1.529-3.578-.75-.705-1.865-1.217-3.354-1.531 1.273-.414 2.244-1.055 2.898-1.903.654-.854.989-1.817.989-2.897 0-1.263-.415-2.375-1.26-3.353-.841-.976-2.051-1.646-3.646-2.026-1.035-.246-2.436-.384-4.171-.384h-.295-9.021v.593h.811c.812 0 1.426.231 1.835.702.301.343.455 1.188.455 2.519v13.971c0 1.199-.125 1.994-.364 2.359-.391.58-1.035.854-1.926.854h-.811v.59h9.819.359c2.415 0 4.22-.225 5.405-.674 1.185-.455 2.113-1.176 2.8-2.15.671-.987 1.006-2.022 1.006-3.092z" fill="none"/><path d="m326.781 204.042c.226.16.675.486.898.65-2.551 8.236-4.904 16.542-7.523 24.757-13.365 44.805-26.945 89.549-40.4 134.33-55.739-.031-111.479.049-167.22-.041-14.92-44.525-29.985-89.004-44.945-133.521-2.555-7.547-5.085-15.098-7.646-22.637 1.711-1.312 3.444-2.596 5.165-3.895 41.896-31.361 83.726-62.801 125.631-94.141 45.33 31.523 90.684 63.01 136.04 94.498zm-2.311 1.741c-1.03-.71-2.057-1.425-3.08-2.13-43.535-30.236-87.069-60.465-130.592-90.715-40.369 30.204-80.693 60.469-121.029 90.715-2.104 1.74-4.675 3.104-6.46 5.111 2.274 7.18 4.819 14.276 7.16 21.442h.085c.477 1.733 1.064 3.433 1.649 5.137 13.76 40.813 27.51 81.636 41.26 122.447.431 1.06.545 2.336 1.32 3.194 2.5.121 5.01-.004 7.515.041 51.825-.035 103.65.06 155.478-.051 12.993-43.619 26.313-87.146 39.279-130.774h.074c2.422-8.147 4.891-16.276 7.341-24.417z" fill="#006932"/><path d="m321.39 203.653c1.023.705 2.05 1.42 3.079 2.13-2.449 8.141-4.92 16.27-7.34 24.42h-.075c-12.965 43.631-26.285 87.156-39.279 130.775-51.823.106-103.648.016-155.477.051-2.505-.045-5.015.08-7.515-.041-.774-.859-.892-2.139-1.32-3.195-13.75-40.813-27.5-81.635-41.26-122.449-.585-1.705-1.176-3.4-1.649-5.135h-.085c-2.341-7.166-4.886-14.266-7.16-21.445 1.785-2.006 4.354-3.369 6.46-5.109 40.335-30.246 80.66-60.511 121.029-90.715 43.523 30.248 87.056 60.477 130.592 90.713zm-49.109 126.915c-3.36.035-6.717.022-10.07.01-1.005-3.094-1.795-6.264-3.024-9.279-.976 3.115-1.936 6.23-2.987 9.32-3.275-.041-6.558-.07-9.83.016 2.47 2.26 5.561 3.828 7.914 6.18-.852 3.201-2.204 6.25-2.994 9.472 2.653-1.986 5.311-3.979 8-5.92 2.675 1.979 5.324 3.993 8.022 5.938-.936-3.176-2.175-6.262-3.011-9.461 2.298-2.43 5.449-4.035 7.98-6.276zm-9.637-41.839c.848-1.729.728-4.569-1.375-5.311-2.067-.471-4.357-.131-6.237-1.301-2.525-1.398-4.396-4.609-3.428-7.484 1.729-5.234.388-10.801-.641-16.033 2.405-2.422 4.516-5.375 4.979-8.836.647-4.055-1.319-8.109-4.271-10.805-4.125-3.775-9.8-5.795-15.38-5.525-12.17.371-24.33 2.041-36.521 1.199-3.229-.184-6.345-1.789-8.271-4.408-1.285-1.795-1.819-4.58-.015-6.236 2.229-1.983 5.459-2.25 8.313-2.159.865.405 1.525 1.144 2.315 1.683 3.015 2.297 6.925 3.108 10.659 2.913 5.147-.215 10.011-2.18 15.125-2.631 0-.226.005-.685.005-.907-5.274-3.771-10.989-7.539-17.557-8.427-3.165-.487-6.266.455-9.104 1.769-4.24.75-8.695 1.625-12.125 4.43-2.896 2.205-4.642 5.92-3.99 9.574.795 3.68 3.965 6.121 7.261 7.522 7.222 3.035 15.295 3.013 22.979 2.438 8.693-1 17.72-2.073 26.271.416 2.444.814 5.302 2.05 6.154 4.709.675 2.892-1.475 5.347-3.279 7.314-4.521-4.42-11.29-4.91-17.238-4.1-7.012.689-13.757 3.75-20.896 2.91-9.984-.875-18.649-6.371-28.09-9.195-.227-1.631-.596-3.234-1.056-4.814-.069-.227-.136-.451-.205-.676-.614-1.955-.396-4.02-.404-6.041 0-.17-.005-.34-.01-.504-.235-3.506 1.284-7.109-.15-10.506-.824-2.523-3.396-4.02-3.989-6.648-2.045-1.045-3.436-2.899-5.12-4.387-2.75-1.199-5.346-2.799-7.354-5.068-3.771-.371-7.854-1.637-11.45.09-1.6.68-3.479.844-4.704 2.208-3.035 2.931-7.061 5.097-8.785 9.136-2.011 2.315-3.311 5.104-4.563 7.871-.886 2.028-.795 4.264-.42 6.409.05.306.108.609.175.914-1.135 2.097-2.085 4.5-1.375 6.906v.004c-2.556 4.25-2.33 9.556-.854 14.135.405 1.291 1.694 1.921 2.852 2.4v.006c-.354 3.045-1.091 6.113-.471 9.185.063.795.335 1.524.659 2.235.426.914.95 1.789 1.301 2.726.46 1.799.029 3.67-.221 5.474.734.055 1.875-.589 2.346.286 1.439 2.313 3.149 4.479 4.131 7.039.648-2.19.909-4.694 1.909-6.78.454-.945 1.061-1.813 1.926-2.519-.495 3.153-.365 6.364-.852 9.524-.386 2.646-.245 5.324-.364 7.982-.125 2.25-1.266 4.611-3.386 5.598-1.676.84-3.604.295-5.37.639-1.938.775-3.585 2.611-3.715 4.757-.051.854.25 1.955 1.187 2.224.034.01.068.02.104.036 2.08.744 4.034 1.858 6.239 2.224.601.711 1.351 1.256 2.226 1.58.365.676.604 1.461 1.142 2.051.739.733 1.84.299 2.76.35.711.744 1.296 1.785 2.381 2.021 1.255.41 2.351-.49 3.399-1.031.704.416 1.42.551 2.108.486 1.771-.15 3.42-1.57 4.569-2.896 2.03-2.096 2.104-5.326 4.171-7.391 1.061-1.244 2.68-1.681 4.13-2.279 3.854-1.551 7.199-4.32 9.391-7.855 10.835 1.842 21.921.006 32.312-3.221 2.18 1.695 4.399 3.34 6.515 5.121 1.035.775 1.678 2.275.854 3.439-1.194 1.645-2.885 2.856-4.399 4.188-1.845 1.512-4.278.48-6.135-.438-2.375-1.269-5.306.006-6.771 2.063-1.353 1.771-2.586 4.17-1.7 6.414.33.893 1.409.74 2.159.934.354.596.671 1.229 1.12 1.77.921.722 2.061.031 3.061-.145.564.465 1.104.982 1.766 1.34 1.228.426 2.37-.404 3.46-.858 2.729 1.264 5.915.243 8.314-1.302 1.75-1.09 2.766-2.924 4.125-4.403 2.2-2.125 5.035-3.5 8.011-4.147 1.892-.513 4.146-1.621 4.439-3.781.12-2.021-1.95-2.98-3.165-4.209-2.564-2.455-2.835-6.32-2.205-9.621 2.944 2.666 6.2 5.076 9.99 6.371 3.055 1.01 6.313 1.924 9.555 1.344 1.061-.139 2.631-.445 3.146.816.335 1.914.109 3.889.131 5.828-.012.961-.097 2.416-1.335 2.534-1.944-.101-3.979-1.476-5.842-.33-2.607 1.563-2.67 5.275-1.75 7.843.222.692.78.844 1.396.854.335.004.686-.035.995-.045.585.521 1.095 1.174 1.817 1.539 1.21.465 2.313-.424 3.335-.934.7.635 1.325 1.438 2.234 1.795.971.385 1.899-.271 2.785-.603 1.226.403 2.625.92 3.819.097 2.705-1.705 3.818-5.021 4.386-8.013.17-2.737-.035-5.563.938-8.181.503-1.781 1.793-3.129 2.708-4.679zm-3.84-95.715c1.795-.955 2.529-2.98 1.984-4.91-1.45-.549-2.62-1.59-3.353-2.949-.556-1.26-2.085-1.227-3.13-1.83-.761-.725-1.25-1.736-2.181-2.27-.811-.48-1.771-.316-2.66-.371-.915-1.285-2.205-2.189-3.6-2.891.675-2.289 2.604-4.334 2.27-6.824-.925-2.105-4.153-2.255-5.89-1.188-1.17 1.916 1.357 3.563.857 5.516-.063 1.164-.926 2.58-2.277 1.885-13.11-4.484-26.683-7.775-40.495-9.095-19.385-1.87-39.635.226-57.234 8.995-6.016 3.135-11.983 6.82-16.375 12.08 5.619-2.061 11.465-3.955 17.521-3.91-3.775 4.529-7.025 9.57-8.979 15.164 4.984-4.354 10.284-8.395 16.181-11.449 16.279-8.666 35.194-11.187 53.426-10.064 11.46.744 22.89 2.66 33.84 6.16-1.391 2.148-2.795 4.639-2.37 7.299.28 1.795 2.285 2.805 3.971 2.525.96-.52 1.909-1.436 1.92-2.6-.072-1.311-1.237-2.125-2.056-3 .45-.73.585-1.965 1.625-2.076 2.227-.039 4.636.105 6.245 1.861 1.915-.1 3.686.674 5.011 2.045 2.07.061 4.035.741 5.749 1.897zm-18.044 137.613c-3.289-.072-6.579-.045-9.869-.014-1.022-3.086-1.96-6.201-2.926-9.305-1.305 3.01-1.979 6.25-3.17 9.309-3.255-.023-6.51-.104-9.76.051 2.535 2.176 5.385 3.939 7.976 6.045-1.08 3.186-2.154 6.375-3.194 9.574 2.733-1.895 5.358-3.943 8.039-5.92 2.671 1.92 5.319 3.865 7.915 5.885-.646-3.318-2.125-6.408-2.909-9.693 2.683-1.905 5.372-3.815 7.898-5.932zm-31.354 0c-3.308-.08-6.61-.039-9.91-.023-1.03-3.104-1.972-6.24-2.939-9.365-1.17 3.066-2.016 6.246-3.074 9.355-3.354-.016-6.705.016-10.057-.025 2.69 2.101 5.495 4.062 8.211 6.125-1.051 3.171-2.176 6.314-3.115 9.521 2.723-1.795 5.189-3.94 7.915-5.726 2.853 1.601 5.285 3.972 8.08 5.722-.938-3.196-2.056-6.347-3.085-9.517 2.618-2.071 5.427-3.897 7.974-6.067zm-31.486-.027c-3.255-.021-6.505-.024-9.755.014-1.12-3.069-1.851-6.274-3.09-9.299-.985 3.095-1.96 6.193-2.972 9.285-3.278 0-6.561-.047-9.835.021 2.506 2.229 5.387 3.983 8 6.084-1.045 3.166-2.153 6.313-3.125 9.5 2.79-1.74 5.229-4.14 8.069-5.705 2.74 1.78 5.23 3.94 7.955 5.756-.975-3.202-2.069-6.375-3.114-9.555 2.562-2.117 5.477-3.793 7.867-6.101zm-31.34.068c-3.271-.305-6.646.23-9.854-.266-1.136-2.99-1.813-6.146-2.995-9.119-1.023 3.1-1.979 6.225-3.016 9.324-3.265-.019-6.534-.07-9.8.031 2.41 2.17 5.229 3.819 7.726 5.895l.12.314c-.854 3.18-2.165 6.225-2.976 9.426 2.705-1.885 5.22-4.146 8.055-5.781 2.71 1.781 5.2 3.885 7.881 5.721-.865-3.205-2.006-6.33-3.035-9.484 2.559-2.116 5.404-3.86 7.894-6.061z" fill="none"/><path d="m294.889 379.863c1.104 1.291 1.665 3.035 1.665 5.246 0 2.59-.854 4.67-2.575 6.25-1.021.938-2.13 1.555-3.329 1.834l-.238-1.029c.76-.16 1.482-.676 2.159-1.535.829-1.061 1.244-2.59 1.244-4.604 0-1.861-.415-3.291-1.244-4.295-.83-.996-1.784-1.49-2.83-1.49-.563 0-1.136.135-1.699.434-.313.156-.7.428-1.146.82l-.471-.584c1.41-1.961 2.921-2.951 4.557-2.951 1.487 0 2.792.635 3.907 1.904z" fill="#006932"/><path d="m292.571 381.729c.828 1.006 1.243 2.437 1.243 4.295 0 2.017-.414 3.545-1.243 4.604-.678.86-1.4 1.375-2.16 1.535-.175.035-.354.06-.535.06-.609 0-1.194-.14-1.785-.404-.574-.275-1.114-.67-1.665-1.201v-8.68c.165-.16.32-.31.471-.439.444-.396.835-.666 1.146-.82.563-.301 1.136-.436 1.7-.436 1.043-.005 1.998.491 2.828 1.486z" fill="none"/><path d="m290.411 392.164.238 1.029c-.521.131-1.056.188-1.604.188-.835 0-1.715-.146-2.585-.453-.864-.318-1.766-.773-2.68-1.396v-15.042c0-1.639-.04-2.664-.125-3.045-.075-.385-.195-.635-.37-.771-.17-.146-.387-.221-.646-.221-.295 0-.67.084-1.114.26l-.216-.584 4.399-1.791h.715v10.563l.471.586c-.147.136-.306.279-.471.439v8.68c.551.531 1.091.927 1.665 1.201.591.271 1.176.402 1.785.402.181.01.363-.01.538-.045z" fill="#006932"/><path d="m280.661 392.373v.59h-7.07v-.59c.7 0 1.176-.063 1.415-.199.245-.141.439-.359.58-.68.13-.32.205-.92.205-1.814v-5.637c0-1.563-.045-2.584-.135-3.039-.07-.34-.2-.58-.348-.705-.159-.135-.375-.193-.652-.193-.308 0-.65.074-1.08.229l-.223-.586 4.382-1.789h.704v11.724c0 .896.068 1.506.204 1.811.12.305.325.52.585.674.268.124.727.204 1.433.204z" fill="#006932"/><path d="m278.26 370.803c.314.314.478.695.478 1.146 0 .445-.16.824-.478 1.145-.306.314-.688.471-1.136.471-.446 0-.83-.153-1.135-.471-.325-.318-.485-.699-.485-1.145 0-.451.16-.83.466-1.146.314-.305.699-.459 1.154-.459.447 0 .831.154 1.136.459z" fill="#006932"/><path d="m269.564 379.863c1.114 1.291 1.664 3.035 1.664 5.246 0 2.59-.846 4.67-2.567 6.25-1.03.938-2.137 1.555-3.335 1.84l-.24-1.035c.771-.16 1.484-.676 2.16-1.535.84-1.061 1.255-2.59 1.255-4.604 0-1.861-.415-3.291-1.255-4.295-.83-.996-1.767-1.49-2.847-1.49-.539 0-1.113.135-1.676.434-.317.156-.699.428-1.147.82l-.472-.584c1.396-1.961 2.927-2.951 4.552-2.951 1.488 0 2.795.635 3.908 1.904z" fill="#006932"/><path d="m262.21 330.578c3.354.016 6.71.025 10.07-.01-2.53 2.24-5.683 3.846-7.98 6.272.835 3.199 2.075 6.283 3.011 9.464-2.697-1.945-5.351-3.964-8.022-5.941-2.689 1.941-5.347 3.936-8 5.92.79-3.219 2.146-6.27 2.995-9.469-2.354-2.354-5.445-3.92-7.915-6.185 3.272-.086 6.555-.055 9.83-.016 1.055-3.091 2.015-6.205 2.987-9.32 1.229 3.021 2.019 6.191 3.024 9.285z" fill="#006932"/><path d="m267.246 381.729c.84 1.006 1.255 2.437 1.255 4.295 0 2.017-.415 3.545-1.255 4.604-.675.86-1.393 1.375-2.16 1.535-.175.035-.354.06-.535.06-.607 0-1.204-.14-1.773-.404-.568-.275-1.136-.67-1.67-1.201v-8.68c.164-.16.318-.31.472-.439.448-.396.83-.666 1.147-.82.563-.301 1.138-.436 1.676-.436 1.076-.005 2.012.491 2.843 1.486z" fill="none"/><path d="m265.085 392.164.24 1.035c-.521.125-1.052.186-1.604.186-.846 0-1.694-.15-2.575-.455-.875-.32-1.772-.775-2.686-1.396v-15.039c0-1.642-.04-2.666-.114-3.045-.08-.386-.2-.636-.375-.771-.171-.146-.386-.223-.646-.223-.308 0-.67.086-1.125.264l-.217-.588 4.398-1.787h.721v10.563l.473.584c-.15.135-.308.28-.473.44v8.681c.535.528 1.103.924 1.671 1.198.568.271 1.164.404 1.773.404.183.004.365-.016.539-.051z" fill="#006932"/><path d="m261.269 283.418c2.103.74 2.223 3.58 1.375 5.311-.915 1.551-2.204 2.898-2.704 4.676-.977 2.615-.771 5.439-.938 8.181-.564 2.99-1.681 6.31-4.385 8.013-1.195.821-2.598.311-3.82-.099-.885.33-1.813.985-2.784.604-.91-.355-1.535-1.16-2.234-1.795-1.023.51-2.125 1.396-3.335.936-.727-.365-1.233-1.021-1.818-1.541-.313.01-.66.051-.995.045l.023-1.27c.672-.73.989-1.849 1.649-2.574.05-.057.104-.111.159-.16.109-.105.229-.195.359-.275.221.057.381.137.5.23.898.773-.887 2.734.091 3.795.028.035.063.07.104.104.393.275.771.32 1.12.205.056-.016.109-.035.164-.061.11-.045.216-.109.315-.186.555-.408.97-1.172 1.1-1.789.146-.705.642-2.313 1.642-1.394.017 1.233-.04 2.914.869 3.813.25.256.58.449 1.011.551.172.005.312-.02.432-.075.104-.045.193-.106.271-.19.125-.144.211-.32.274-.525.023-.08.051-.164.07-.254.061-.266.101-.545.152-.814.029-.129.058-.254.092-.367.158-.518.443-.848 1.193-.584.229 1.111.432 3.111 2.114 2.604.141-.056.274-.115.405-.187.255-.137.494-.289.715-.473 1.438-1.146 2.13-3.139 2.688-4.84.757-1.984.268-4.125.547-6.18.278-2.539.971-5.119 2.521-7.199.601-.871 1.431-1.711 1.4-2.846.135-.881-.19-2.109-1.271-2.097-2.194-.063-4.483-.267-6.375-1.493-2.772-1.587-4.13-4.791-4.335-7.865 1.221-2.115 1.365-4.619 1.306-7-.152-3.42-.806-6.795-1.681-10.09 2.335-2.365 4.625-5.086 5.176-8.472.665-3.549-1.021-7.14-3.568-9.545-3.859-3.649-9.271-5.604-14.569-5.324-12.34.404-24.675 2.08-37.035 1.171-4.272-.365-8.529-3.052-10.063-7.16-.881-2.271-.193-5.062 1.813-6.494.556-.4 1.141-.736 1.756-1.012 2.609-1.171 5.67-1.25 8.484-.97 5.325-1.131 10.813-.625 16.135.278-.569 1.011.12 2.007 1.141 2.279 2.098 1.012 4.313-.016 6.421-.375-4.539-3.113-9.488-6.108-15.063-6.738-2.835-.364-5.625.488-8.101 1.806-2.625.479-5.314.785-7.791 1.851-.596.239-1.188.516-1.771.83-2.58 1.395-4.841 3.561-5.521 6.475-.729 2.98.71 6.23 3.305 7.826.67.453 1.354.858 2.063 1.225.352.186.704.355 1.069.516.181.08.364.158.55.234.364.15.729.289 1.104.424h.005c.186.07.375.133.563.191 4.146 1.355 8.677 1.646 12.994 1.709 6.529.18 12.955-1.305 19.479-1.369 4.601-.064 9.272.141 13.726 1.404.444.131.893.274 1.335.436.295.105.585.221.875.334h.006c.289.125.574.25.854.387.851.404 1.66.892 2.38 1.488.235.205.466.416.688.637.108.113.216.229.318.353 1.42 1.594 1.807 3.965 1.045 5.948-.061.148-.12.302-.181.449-.13.295-.271.586-.42.871-.766 1.42-1.806 2.687-2.984 3.787l-.955-1.076c1.808-1.973 3.955-4.428 3.279-7.313-.854-2.66-3.71-3.896-6.154-4.711-8.55-2.49-17.573-1.414-26.271-.414-7.688.567-15.76.594-22.979-2.44-3.295-1.404-6.465-3.845-7.261-7.523-.648-3.656 1.096-7.371 3.99-9.576 3.431-2.805 7.885-3.68 12.125-4.43 2.84-1.312 5.938-2.256 9.104-1.767 6.564.886 12.279 4.656 17.558 8.427 0 .225-.006.686-.006.909-5.114.449-9.977 2.414-15.125 2.63-3.734.194-7.646-.619-10.659-2.914-.79-.541-1.45-1.275-2.314-1.681-2.854-.09-6.085.175-8.313 2.16-1.808 1.653-1.271 4.438.015 6.233 1.926 2.619 5.04 4.226 8.271 4.41 12.188.84 24.352-.83 36.521-1.201 5.58-.271 11.256 1.75 15.381 5.523 2.949 2.695 4.92 6.75 4.271 10.807-.467 3.461-2.575 6.416-4.979 8.836 1.024 5.232 2.369 10.801.641 16.035-.971 2.875.899 6.084 3.427 7.482 1.871 1.17 4.161.83 6.229 1.299zm-51.948-59.654c1.515-.135 3.345-.354 4.188-1.811-2.779-.805-5.77-.93-8.585-.234.626 1.81 2.725 2.16 4.397 2.045z" fill="#006932"/><path d="m174.55 282.203c-1.244 1.576-2.125 3.396-2.505 5.371-.245.375-.495.744-.755 1.104-.26.365-.524.721-.8 1.07-.275.352-.562.695-.852 1.035-.301.334-.601.66-.91.975-1.25 1.266-2.653 2.359-4.266 3.182-1.87 1.185-4.295 1.379-5.92 2.935-.055.054-.109.104-.16.16-.055.055-.104.11-.154.166-.108.103-.215.198-.311.299-1.095 1.114-1.75 2.53-2.311 3.979-.204.52-.399 1.051-.602 1.565-.063.121-.135.24-.199.354-.146.229-.29.461-.443.687-.315.449-.665.879-1.046 1.285-.859.894-1.886 1.608-3.064 1.979-.34.023-.55-.045-.675-.188-.426-.475.199-1.725.273-2.375.285-.402.165-.816-.101-1.066-.274-.271-.72-.359-1-.063-.075.074-.14.174-.186.305-.399.973-.859 2.439-1.676 3.268-.506.507-1.146.771-1.995.517-.25-.125-.443-.271-.585-.426-.896-.99.229-2.494.904-3.49-.215-.226-.635-.67-.854-.897v-.006c-.171.104-.325.229-.467.368-.545.521-.96 1.228-1.46 1.781-.238.254-.488.479-.778.635-.125.063-.262.119-.4.16-.145.035-.295.062-.46.063-.06-.059-.114-.108-.165-.16-1.055-1.18-.26-2.959.71-3.977.495-.402.591-1.221.155-1.539-.149-.109-.36-.158-.635-.119-.228.146-.432.313-.615.5-.689.67-1.187 1.535-1.865 2.229-.125.125-.255.25-.39.36.068-1.262.488-2.813 1.409-3.77.04-.045.086-.09.136-.135.46-.424 1.029-.705 1.733-.744.227-.016.444-.041.671-.066.226-.031.443-.069.664-.11.227-.046.444-.095.66-.154 2.835-.756 5.38-2.676 6.439-5.471.305-1.97.04-4.021.608-5.949.439-1.496.922-2.972 1.37-4.461 1.024 1.26 1.159 2.86.814 4.41 2.604-.654 4.186-2.83 5.273-5.175.364-.78.677-1.575.949-2.346.12.045.223.104.315.18.045.035.09.076.135.121.55.539.73 1.465 1.465 1.685.801-1.761 1.466-3.574 2.115-5.396.175-.483.345-.979.521-1.461.182-.646.66-1.045 1.212-1.352.323-.186.68-.34 1.005-.496.175-1.869.71-3.75 1.885-5.244.396 1.143.72 2.309 1 3.484 4.398-4.795 5.5-11.504 5.62-17.785 1.475-1.27 2.595-2.854 3.35-4.607h.006c.739-1.729 1.125-3.625 1.13-5.535 9.307 2.976 17.972 8.267 27.887 9.097 8.01.889 15.534-2.853 23.479-3.149 5.23-.496 11 .674 14.535 4.858.375-.3.74-.615 1.09-.945 1.184-1.104 2.224-2.368 2.985-3.788.147-.285.29-.576.42-.871.063-.148.125-.3.186-.449.757-1.984.375-4.355-1.045-5.949-.104-.121-.216-.24-.322-.352-.224-.226-.445-.435-.688-.636-.72-.601-1.529-1.084-2.38-1.489-.28-.14-.564-.265-.854-.386h-.005c-.29-.118-.58-.229-.875-.334-.442-.159-.891-.305-1.336-.437-4.449-1.268-9.125-1.471-13.725-1.403-6.525.063-12.95 1.549-19.479 1.369-4.317-.063-8.851-.354-12.994-1.709-.188-.063-.375-.125-.563-.191 0 0 0 0-.005 0-.37-.135-.74-.272-1.104-.424-.186-.076-.37-.155-.551-.235-.358-.164-.72-.334-1.069-.515-.71-.364-1.396-.771-2.063-1.226-2.595-1.596-4.035-4.846-3.305-7.825.68-2.914 2.938-5.08 5.52-6.476l.545 1.039c-.614.273-1.199.609-1.755 1.012-2.01 1.435-2.694 4.226-1.814 6.494 1.535 4.107 5.79 6.795 10.064 7.158 12.36.91 24.695-.766 37.035-1.17 5.3-.277 10.71 1.676 14.567 5.324 2.553 2.406 4.234 5.996 3.569 9.545-.55 3.387-2.84 6.105-5.175 8.473.875 3.295 1.525 6.67 1.681 10.09.063 2.381-.086 4.886-1.306 7 .205 3.074 1.561 6.277 4.335 7.863 1.891 1.23 4.181 1.432 6.375 1.494 1.08-.016 1.405 1.215 1.271 2.098.026 1.135-.804 1.976-1.4 2.847-1.55 2.079-2.24 4.659-2.521 7.198-.277 2.056.211 4.193-.545 6.181-.561 1.7-1.25 3.688-2.688 4.84-.222.183-.46.336-.715.472-.132.069-.269.131-.405.186-1.688.51-1.885-1.49-2.115-2.604-.75-.263-1.034.067-1.194.584-.032.114-.063.239-.09.368-.056.269-.096.548-.152.813-.021.084-.047.17-.07.254-.064.205-.149.385-.274.525-.074.08-.165.145-.271.192-.12.051-.261.076-.432.069-.426-.104-.756-.295-1.011-.545-.91-.899-.854-2.58-.87-3.813-1-.92-1.494.687-1.641 1.392-.13.619-.545 1.381-1.101 1.789-.103.069-.204.137-.314.186-.055.025-.109.045-.165.061-.35.109-.729.064-1.119-.211-.035-.025-.067-.063-.104-.1-.978-1.061.81-3.02-.091-3.795-.114-.1-.274-.18-.5-.234-.132.08-.25.17-.359.279-.056.045-.109.1-.16.16-.659.729-.979 1.846-1.648 2.576-.568-1.849-.813-4.217.563-5.763 1.835-1.687 4.12.687 6.189.104.232-.063.466-.166.688-.315.267-.151.49-.34.67-.539 1.195-1.305.847-3.461.896-5.131-.053-1.901.534-4.306-1.23-5.64-1.295-.979-2.84-.635-4.329-.399-.29.045-.58.084-.864.108-.146.011-.283.021-.426.023-.205-.016-.41-.027-.607-.045-.41-.033-.815-.086-1.228-.141-2.226-.311-4.41-.93-6.476-1.826-3.38-1.465-6.438-3.67-8.825-6.479-2.21-2.892-4.72-5.605-7.72-7.689.55 1.375 1.14 2.734 1.675 4.119-1.25-.34-2.39-.904-3.484-1.549-.822-.49-1.625-1.016-2.431-1.531-.265-.174-.535-.344-.805-.51 1.255 1.701 3.045 3.229 3.38 5.426-2.42-1.234-4.705-2.701-6.88-4.313-.005-.009-.005-.015-.013-.015v.006c.178.224.353.438.535.654v.006c.354.438.723.881 1.069 1.324.875 1.125 1.66 2.315 2.056 3.704-1.811-.334-3.41-1.17-4.902-2.186-.335-.229-.66-.465-.985-.703-.16-.121-.319-.246-.479-.365-.476-.371-.942-.75-1.407-1.125-.155-.125-.313-.25-.468-.375.984 1.685 2.133 3.271 3.103 4.965.141.24.272.484.397.73-2.585-.787-4.897-2.191-7.067-3.777 0 .006.005.006.005.01.84 1.41 1.715 2.807 2.57 4.211.282.471.567.936.85 1.404-2.199-.771-4.229-1.91-6.16-3.199-.35-.234-.699-.48-1.045-.721-.51-.365-1.02-.74-1.52-1.115-.008-.004-.008-.004-.013-.01v.006c.409.535.819 1.074 1.234 1.606.82 1.08 1.646 2.158 2.439 3.259.397.545.801 1.094 1.186 1.645-2.375-.381-4.6-1.461-6.3-3.154-.235-.234-.465-.484-.688-.75.585 1.471 1.34 2.854 2.052 4.266.104.199.203.398.301.601-1.775-.315-3.263-1.392-4.54-2.666-.229-.229-.45-.465-.677-.705-.323-.36-.636-.729-.938-1.094.811 1.739 1.62 3.5 2.11 5.364-1.605-.2-2.875-1.045-3.96-2.131-.24-.24-.479-.49-.695-.75-.226-.26-.439-.524-.655-.795-.31-.404-.607-.813-.903-1.215.771 1.814 1.681 3.6 2.021 5.561-1.79-.596-3.29-1.75-4.42-3.211-.564-.733-1.04-1.539-1.41-2.396-.074-.164-.14-.34-.21-.51v.006c.295 1.91.745 3.801 1.075 5.709-.715-.479-1.385-1.024-1.995-1.629-1.015-1.006-1.875-2.16-2.521-3.437l-.005-.004c.024.094.057.193.08.295.505 1.863 1.064 3.771.75 5.726-.766-.354-1.476-.841-2.068-1.427-1.004-.986-1.658-2.281-1.643-3.777z" fill="none"/><path d="m260.79 188.104c.545 1.93-.189 3.955-1.984 4.91-1.716-1.154-3.681-1.834-5.75-1.895-1.324-1.371-3.096-2.145-5.011-2.045-1.609-1.756-4.021-1.9-6.245-1.861-1.039.111-1.175 1.346-1.625 2.076.815.875 1.98 1.689 2.057 3-.011 1.164-.961 2.08-1.921 2.6-1.686.279-3.688-.73-3.971-2.525-.425-2.66.98-5.15 2.37-7.299-10.949-3.5-22.38-5.416-33.84-6.16-18.229-1.121-37.146 1.4-53.425 10.064-5.896 3.055-11.195 7.096-16.182 11.449 1.955-5.594 5.205-10.635 8.979-15.164-6.057-.045-11.899 1.85-17.521 3.91 4.392-5.26 10.359-8.945 16.375-12.08 17.602-8.77 37.852-10.865 57.234-8.995 13.813 1.319 27.385 4.61 40.495 9.095 1.354.695 2.215-.721 2.279-1.885.5-1.955-2.029-3.6-.859-5.516 1.734-1.069 4.965-.92 5.891 1.186.335 2.49-1.596 4.535-2.271 6.824 1.396.701 2.686 1.605 3.601 2.891.891.055 1.853-.109 2.659.371.931.533 1.42 1.545 2.181 2.27 1.045.605 2.574.57 3.131 1.83.733 1.359 1.903 2.398 3.353 2.949zm-6.865 1.063c1.392.766 3.102-.885 2.511-2.314-.295-.994-1.574-1.436-2.436-.9-1.214.606-1.356 2.6-.075 3.214zm-5.09-2.298c1.715.975 3.604-1.381 2.846-2.996-.229-.654-.989-.959-1.636-.83-1.616.294-2.634 2.714-1.21 3.826zm-4.486-1.972c1.768.15 3.125-1.939 2.625-3.539-.186-.92-1.471-1.031-2.085-.5-1.304.736-2.268 3.254-.54 4.039zm-7.108-5.028c.147 1.424 1.618 1.645 2.79 1.525-.276-1.366-1.625-1.585-2.79-1.525zm-1.632 2.42c.034-.365.104-1.086.142-1.451-8.88-3.08-18.104-5.193-27.444-6.285l.119-1.045c8.87 1.045 17.676 2.771 26.32 4.926-.024-.355-.064-1.07-.09-1.426-19.775-5.93-40.695-8.879-61.296-6.434-11.064 1.359-22.104 4.119-32.016 9.324-2.386 1.35-4.891 2.676-6.671 4.814 3.676-1.055 7.405-1.943 11.19-2.504 1.119-.105 2.113-.58 3.095-1.105l1.03 1.035c-.926.475-1.78 1.051-2.44 1.885-2.055 2.42-4.165 4.895-5.409 7.859 10.455-6.004 21.835-10.408 33.676-12.744 19.779-3.894 40.525-2.76 59.794 3.151z" fill="#006932"/><path d="m256.434 186.854c.591 1.43-1.119 3.08-2.511 2.314-1.279-.613-1.14-2.609.075-3.215.861-.536 2.141-.095 2.436.901z" fill="none"/><path d="m256.036 389.939v.889c-1.205 1.596-2.33 2.396-3.427 2.396-.533 0-.948-.17-1.256-.545-.313-.355-.465-.97-.476-1.83-1.51 1.157-2.435 1.83-2.819 2.01-.561.27-1.186.397-1.824.397-1.011 0-1.835-.342-2.488-1.026-.66-.695-.978-1.604-.978-2.724 0-.721.154-1.321.478-1.846.425-.729 1.192-1.404 2.271-2.045 1.058-.636 2.87-1.406 5.364-2.326v-.56c0-1.461-.234-2.455-.699-2.985-.444-.545-1.125-.813-1.989-.813-.676 0-1.205.18-1.602.539-.404.359-.604.773-.604 1.244l.033.922c0 .494-.119.869-.375 1.125-.25.273-.563.402-.979.402-.396 0-.71-.135-.965-.414-.262-.273-.375-.66-.375-1.131 0-.91.46-1.76 1.397-2.523.938-.756 2.25-1.141 3.938-1.141 1.284 0 2.351.221 3.188.654.62.326 1.085.84 1.37 1.535.21.451.3 1.381.3 2.791v4.93c0 1.391.029 2.24.075 2.549.05.313.141.521.271.631.112.105.272.154.425.154.165 0 .306-.029.45-.109.229-.136.659-.515 1.296-1.15zm-5.156-.125v-5.541c-1.614.641-2.654 1.086-3.13 1.34-.845.471-1.439.955-1.805 1.465-.354.518-.54 1.066-.54 1.682 0 .75.225 1.391.688 1.891.465.504.989.75 1.579.75.812-.003 1.887-.528 3.208-1.587z" fill="#006932"/><path d="m251.679 183.873c.761 1.615-1.131 3.971-2.846 2.996-1.425-1.111-.404-3.531 1.21-3.826.646-.129 1.408.176 1.636.83z" fill="none"/><path d="m250.88 384.273v5.541c-1.319 1.059-2.396 1.584-3.205 1.584-.59 0-1.114-.244-1.579-.75-.466-.5-.688-1.144-.688-1.894 0-.61.188-1.161.539-1.68.363-.511.961-.996 1.806-1.466.471-.249 1.511-.694 3.127-1.335z" fill="none"/><path d="m247.429 289.193c1.767 1.336 1.181 3.734 1.229 5.641-.052 1.67.3 3.824-.896 5.129-.186.201-.404.381-.671.535-.225.15-.454.25-.688.32-2.069.576-4.354-1.795-6.189-.109v.004c-1.38 1.547-1.135 3.916-.563 5.762l-.023 1.271c-.614-.011-1.175-.16-1.396-.854-.921-2.563-.858-6.275 1.75-7.84 1.858-1.146 3.896.229 5.841.328 1.238-.119 1.324-1.572 1.336-2.533-.021-1.939.203-3.914-.132-5.83-.516-1.262-2.085-.955-3.146-.813-3.239.579-6.5-.336-9.555-1.347-3.79-1.295-7.045-3.705-9.99-6.369-.63 3.3-.359 7.164 2.205 9.619 1.215 1.229 3.285 2.189 3.165 4.211-.295 2.16-2.55 3.271-4.439 3.779-2.976.648-5.811 2.023-8.011 4.148-1.359 1.48-2.375 3.316-4.125 4.406-2.398 1.545-5.585 2.563-8.313 1.299-1.091.455-2.233 1.285-3.46.861-.659-.355-1.198-.875-1.767-1.345-1 .179-2.14.865-3.061.146-.449-.541-.767-1.176-1.119-1.771-.75-.188-1.83-.036-2.16-.93-.885-2.246.351-4.646 1.7-6.416 1.465-2.06 4.396-3.33 6.771-2.063 1.854.92 4.29 1.949 6.136.438 1.517-1.33 3.204-2.545 4.398-4.188.82-1.166.181-2.666-.854-3.44-2.113-1.779-4.335-3.425-6.516-5.119-10.391 3.229-21.476 5.063-32.311 3.224-2.189 3.53-5.535 6.305-9.392 7.854-1.449.602-3.068 1.035-4.13 2.281-2.063 2.063-2.141 5.295-4.171 7.389-1.148 1.326-2.8 2.746-4.568 2.896l-.062-1.41c1.181-.369 2.205-1.09 3.064-1.984.381-.406.729-.836 1.046-1.285.159-.225.305-.455.443-.686.064-.115.137-.234.199-.355.2-.52.396-1.045.602-1.568.561-1.444 1.216-2.858 2.311-3.977.101-.1.205-.197.311-.295v-.004c.052-.055.102-.109.154-.166.051-.055.105-.107.16-.16 1.625-1.549 4.051-1.744 5.92-2.93 1.61-.82 3.021-1.92 4.266-3.184.314-.316.615-.646.91-.979.29-.341.574-.687.852-1.035.278-.351.545-.705.8-1.065.26-.361.51-.73.755-1.105.381-1.975 1.261-3.795 2.506-5.371-.016 1.496.641 2.791 1.646 3.781.59.59 1.305 1.074 2.068 1.43v-.006c.314-1.955-.245-3.857-.75-5.725-.023-.103-.051-.195-.074-.289.646 1.271 1.506 2.43 2.521 3.434.61.605 1.28 1.15 1.995 1.637v-.006c-.33-1.908-.779-3.801-1.075-5.709.065.17.136.34.21.504.37.855.846 1.66 1.41 2.396 1.125 1.459 2.625 2.619 4.42 3.215v-.006c-.34-1.959-1.25-3.744-2.021-5.56.296.396.596.81.904 1.216.21.27.426.534.654.795.221.26.455.51.695.75 1.078 1.09 2.354 1.934 3.96 2.135v-.006c-.49-1.865-1.302-3.625-2.11-5.365.306.365.615.73.938 1.096.222.24.438.477.677.705 1.272 1.275 2.766 2.355 4.545 2.67v-.004c-.102-.201-.2-.4-.306-.602-.711-1.41-1.467-2.795-2.052-4.265.223.265.449.515.688.75 1.693 1.691 3.925 2.781 6.305 3.156v-.006c-.39-.55-.784-1.101-1.188-1.646-.795-1.096-1.618-2.174-2.438-3.254-.409-.535-.819-1.07-1.225-1.605.5.375 1.01.75 1.521 1.115.345.244.694.484 1.045.719 1.931 1.296 3.96 2.439 6.159 3.201l.006.004v-.004c-.279-.471-.563-.936-.854-1.405-.854-1.402-1.729-2.8-2.57-4.21 2.17 1.58 4.484 2.984 7.07 3.775v-.006c-.132-.244-.268-.49-.405-.73-.97-1.692-2.114-3.278-3.102-4.965.154.125.312.25.467.375.465.381.936.756 1.408 1.125.159.121.319.246.479.365.325.24.649.475.985.705 1.493 1.016 3.095 1.85 4.902 2.186-.396-1.391-1.181-2.58-2.056-3.705-.351-.448-.71-.891-1.069-1.323 0-.006 0-.006 0-.006-.181-.216-.354-.437-.522-.646 2.175 1.616 4.46 3.084 6.88 4.315v-.007c-.335-2.192-2.125-3.725-3.38-5.424.271.164.54.334.805.511.806.521 1.604 1.045 2.431 1.528 1.098.646 2.234 1.211 3.484 1.551-.534-1.385-1.125-2.745-1.675-4.12 3 2.086 5.51 4.803 7.72 7.69 2.392 2.81 5.445 5.014 8.825 6.479 2.063.899 4.25 1.521 6.476 1.823.41.063.814.105 1.228.144.198.017.403.026.607.047.143-.008.279-.021.426-.024.285-.025.574-.064.864-.109 1.487-.239 3.032-.585 4.326.395zm-19.205 7.055c-.165-1.514-1.87-2.059-2.771-3.08-3.17-3.152-3.445-8.084-2.21-12.17-.45-.535-.896-1.068-1.335-1.6-4.9 2.42-9.99 4.438-15.188 6.131 1.563 1.404 3.239 2.66 4.896 3.945 1.375.985 2.705 2.459 2.488 4.289-.318 2.664-2.953 3.954-4.618 5.725-1.66 1.74-4.394 2.105-6.545 1.141-1.41-.545-2.843-1.711-4.428-1.023-2.567 1.08-4.277 4.011-4.067 6.785.563-.682 1.063-1.416 1.482-2.19.324.063.978.18 1.295.239-.181 1.381-.229 2.779 0 4.16.774-.271 1.739-.42 2.069-1.301.687-1.475 1.83-2.613 3.155-3.523-.275 1.58-1.04 3.004-1.563 4.511.146.646.729 1.254 1.454 1.153 1.313-.271 1.98-1.569 2.934-2.379 1.09.14.935 1.185 1.021 2.004 3.221.142 6.511-1.285 8.354-3.977 1.75-2.77 4.71-4.523 7.685-5.719 2.053-.73 4.954-.781 5.892-3.121z" fill="#006932"/><path d="m247.094 300.498c.266-.154.484-.334.67-.535-.181.201-.404.387-.67.541-.226.15-.455.256-.688.314.233-.07.465-.17.688-.32z" fill="#fff"/><path d="m246.974 181.358c.5 1.6-.857 3.689-2.625 3.539-1.729-.785-.766-3.305.54-4.039.616-.53 1.901-.42 2.085.5z" fill="none"/><path d="m240.215 300.709c1.835-1.686 4.12.686 6.19.109-2.07.58-4.355-1.789-6.19-.105z" fill="#fff"/><path d="m244.519 252.633.955 1.08c-.351.33-.716.646-1.091.945-3.534-4.186-9.305-5.355-14.534-4.861-7.942.301-15.471 4.041-23.479 3.15-9.915-.83-18.58-6.119-27.885-9.094-.007 1.91-.393 3.805-1.132 5.535h-.005l-1.348-.548c.415-.947.625-1.982.63-3.021.03-2.711-.34-5.399-.774-8.065l1.387-.317c.46 1.58.83 3.184 1.055 4.813 9.438 2.824 18.104 8.319 28.091 9.194 7.141.841 13.885-2.221 20.896-2.909 5.944-.81 12.715-.322 17.234 4.098z" fill="#006932"/><path d="m240.955 392.373v.59h-9.26v-.59h.76c.88 0 1.528-.25 1.925-.764.271-.346.396-1.16.396-2.451v-6.584-1.166-6.219c0-1.099-.062-1.814-.198-2.156-.104-.26-.325-.5-.66-.684-.47-.259-.955-.384-1.46-.384h-.76v-.586h9.26v.586h-.779c-.516 0-.99.119-1.45.369-.346.16-.574.42-.692.765-.115.34-.188 1.045-.188 2.09v13.969c0 1.09.069 1.805.205 2.156.109.271.329.5.654.684.479.262.955.375 1.471.375z" fill="#006932"/><path d="m240.031 181.395c-1.172.119-2.643-.102-2.79-1.525 1.165-.061 2.514.158 2.79 1.525z" fill="none"/><path d="m230.889 330.613c3.29-.029 6.58-.061 9.869.016-2.523 2.115-5.215 4.025-7.898 5.932.784 3.283 2.267 6.375 2.909 9.693-2.596-2.02-5.244-3.965-7.914-5.885-2.682 1.977-5.307 4.025-8.04 5.92 1.04-3.201 2.114-6.391 3.193-9.576-2.59-2.104-5.438-3.869-7.975-6.045 3.25-.152 6.505-.072 9.76-.049 1.189-3.061 1.865-6.301 3.17-9.311.966 3.106 1.903 6.221 2.926 9.305z" fill="#006932"/><path d="m235.75 180.837c-.035.365-.104 1.086-.142 1.451-19.271-5.91-40.017-7.045-59.794-3.15-11.841 2.336-23.222 6.74-33.676 12.744 1.244-2.965 3.354-5.439 5.409-7.859.66-.834 1.517-1.41 2.44-1.885.925-.471 1.92-.84 2.854-1.25 8.596-3.414 17.721-5.365 26.892-6.426 9.489-1.074 19.091-1.02 28.569.092 9.342 1.091 18.569 3.203 27.448 6.283z" fill="none"/><path d="m224.781 381.408h9.993v1.166h-9.993v6.584c0 1.09.072 1.805.203 2.156.108.271.336.5.659.684.455.262.939.375 1.455.375h.768v.59h-9.245v-.59h.778c.875 0 1.521-.25 1.927-.764.265-.346.39-1.16.39-2.451v-13.969c0-1.099-.074-1.814-.215-2.156-.109-.26-.324-.5-.642-.684-.477-.259-.966-.384-1.46-.384h-.778v-.586h9.245v.586h-.768c-.516 0-1 .119-1.455.369-.323.16-.551.42-.67.765-.12.34-.192 1.045-.192 2.09z" fill="#006932"/><path d="m234.656 177.007c.022.355.063 1.07.09 1.426-8.646-2.154-17.45-3.881-26.32-4.926-10.898-1.284-21.895-1.544-32.824-.299-8.58 1.039-17.113 3.119-24.891 6.959-.59.285-1.17.621-1.75.936-.979.525-1.976 1-3.095 1.105-3.785.561-7.517 1.449-11.19 2.504 1.78-2.139 4.285-3.465 6.671-4.814 9.909-5.205 20.949-7.965 32.017-9.324 20.596-2.446 41.516.504 61.292 6.433z" fill="none"/><path d="m228.109 24.309c1.927 5.885.273 12.2-2.104 17.7-2.771 6.7-6.944 13.274-6.5 20.814-1.688-3.51-.8-7.496.21-11.056 1.87-6.63 4.99-13 5.391-19.965.234-3.69-1.164-7.81-4.505-9.735-3.988-2.43-9.113-2.149-13.255-.244-5.75 2.539-10.035 7.324-14.016 12.024-4.396-5.315-9.57-10.319-16.115-12.854-3.944-1.601-8.84-1.826-12.364.865-3.351 2.309-4.625 6.574-4.613 10.469.068 6.211 2.505 12.016 3.954 17.965.688 2.756 1.061 5.641.449 8.451-.716-2.42-1.101-4.93-2.04-7.275-2.199-6.266-5.846-12.064-6.896-18.695-.88-5.14 1.21-10.55 5.069-13.984 3.854-2.811 9.063-2.98 13.539-1.791 6.115 1.686 11.279 5.726 15.506 10.336 1.229 1.275 2.229 2.755 3.501 3.994 3.438-4.51 7.145-8.965 11.947-12.084 3.396-2.205 7.409-3.76 11.521-3.426 5.002.335 9.431 3.935 11.321 8.491z" fill="#006932"/><path d="m225.455 293.168c.897 1.021 2.604 1.564 2.771 3.08-.938 2.34-3.84 2.391-5.886 3.119-2.975 1.195-5.935 2.951-7.685 5.721-1.843 2.689-5.132 4.115-8.353 3.977-.091-.819.064-1.864-1.022-2.006-.95.812-1.62 2.109-2.933 2.381-.726.101-1.311-.512-1.455-1.155.521-1.505 1.285-2.931 1.563-4.511-1.325.91-2.472 2.051-3.155 3.525-.329.879-1.295 1.029-2.069 1.301-.229-1.381-.181-2.781 0-4.16-.317-.063-.97-.182-1.295-.24-.42.775-.92 1.511-1.482 2.189-.211-2.775 1.5-5.705 4.067-6.785 1.585-.686 3.018.479 4.427 1.023 2.153.967 4.886.602 6.545-1.139 1.665-1.771 4.301-3.063 4.619-5.725.217-1.83-1.113-3.306-2.488-4.291-1.654-1.285-3.335-2.539-4.896-3.945 5.194-1.689 10.285-3.709 15.188-6.129.438.526.885 1.063 1.335 1.6-1.241 4.086-.965 9.016 2.204 12.17zm-3.221 1.09c.58-2.369-.563-4.734-2.148-6.439-.229.261-.694.781-.925 1.041.897 1.324 1.903 2.771 1.715 4.47-.239 2.364-2.234 3.985-4.08 5.229.2.446.4.901.604 1.36 2.105-1.351 4.225-3.126 4.834-5.661z" fill="none"/><path d="m220.085 287.818c1.585 1.705 2.729 4.07 2.148 6.438-.608 2.535-2.729 4.313-4.835 5.66-.203-.461-.403-.916-.604-1.363 1.846-1.238 3.84-2.859 4.08-5.227.188-1.701-.814-3.145-1.715-4.471.23-.255.695-.777.926-1.037z" fill="#006932"/><path d="m224.939 222.645c-2.108.359-4.323 1.385-6.421.375-1.021-.274-1.71-1.271-1.141-2.281-5.319-.903-10.81-1.409-16.135-.278-2.814-.278-5.875-.201-8.485.972l-.545-1.039c.58-.314 1.176-.593 1.771-.83 2.477-1.064 5.165-1.369 7.79-1.853 2.477-1.313 5.267-2.17 8.102-1.806 5.576.628 10.524 3.624 15.064 6.74z" fill="none"/><path d="m218.809 70.203c.989 2.781 1.768 5.701 1.853 8.666-.234 1.779-1.097 3.705-2.74 4.584-1.521.73-3.104-.154-4.475-.785-.955.615-1.905 1.576-3.138 1.406-.744-.166-1-.979-1.482-1.465-1.035.789-2.104 1.934-3.54 1.734-1.399-.225-2.035-1.635-2.683-2.721-3.854 2.73-8.521 4.511-13.3 4.181-3.688-.165-7.25-1.455-10.404-3.335-1.04 1.715-2.324 3.859-4.579 3.949-1.905-.045-3.131-1.76-3.646-3.414-2.345 1.645-3.449 4.814-6.313 5.734-2.021.655-3.655-1.59-3.472-3.414.205-1.936 1.46-3.625 3.051-4.681-.449 1.375-1.704 3.125-.392 4.405 1.102.744 2.341-.115 3.146-.875 2.84-2.721 4.805-6.439 8.465-8.221-.28-1.129-1.181-2-1.74-2.994-2.188 2.15-3.805 4.875-6.313 6.689-.824.67-1.926.711-2.926.895-.785-.92-1.795-1.854-1.756-3.17.03-2.85 1.735-5.479 3.91-7.219-.545 1.555-1.564 3.004-1.62 4.699-.09 1.42 1.695 2.436 2.875 1.65 2.631-1.686 4.216-4.485 6.046-6.93 1.199-1.506 3.189-2.801 5.181-2.181 2.016.636 2.676 2.915 4.311 4.07 3.445 2.649 7.995 3.329 12.229 3.245 5.477-.825 10.148-4.23 15.597-5.245-1.62-2.255-4.495-2.595-7.04-2.806.87-1.135 2.306-2.299 3.824-1.694 3.261 1.265 6.729 1.784 10.171 2.335-1.41 1.494-2.235 4.105-4.643 4.125-5.261 1.01-10.114 3.38-15.08 5.295-5.436 2.41-11.811.955-16.71-2.045-.971.66-2.034 1.154-3.136 1.545.556 1.085 1.32 2.061 2.352 2.734 4.466 3.136 10.244 4.771 15.631 3.386 3.135-.705 5.96-2.306 8.635-4.03.354.805.443 1.905 1.398 2.27 1.396.056 2.358-1.125 3.358-1.92.646.44 1.221 1.28 2.115 1.115.805-.26 1.354-.965 2-1.484.96 1.52 3.01 2.26 4.5.975.845-2.439-.79-4.755-1.915-6.805.787-.758 1.582-1.518 2.395-2.253zm-41.444 3.034c1.165.621 2.705-.619 2.335-1.89-.17-1.235-1.865-1.79-2.761-.94-.97.721-.71 2.416.426 2.83zm-.69 8.591c.146-1.209-1.135-2.359-2.319-1.91-1.42.436-1.693 2.586-.42 3.351 1.088.843 2.739-.125 2.739-1.441z" fill="#006932"/><path d="m218.335 29.769c.186 3.585-2.495 6.306-3.989 9.31 1.221.82 2.521 1.711 3.104 3.125.71 1.551.3 3.326-.38 4.811-1.894 4.32-3.575 8.936-3.115 13.73-1.325-1.471-1.518-3.555-1.13-5.42.527-3.42 2.385-6.735 1.68-10.266-.399-1.891-2.05-3.061-3.64-3.925 1.938-2.319 3.897-5.101 3.585-8.285-.16-1.819-1.78-3.34-3.625-3.28-2.467.131-4.928.836-7.005 2.186-3.644 2.305-6.718 5.355-9.625 8.515l-1.138-.375c3.364-4.521 7.268-8.75 11.994-11.875 2.813-1.8 6.355-3.271 9.688-2.079 1.655.642 3.556 1.837 3.596 3.828z" fill="#006932"/><path d="m217.349 88.378c-.277.97-1.21 1.564-1.846 2.305-.76-.71-1.524-1.41-2.295-2.1.636-.745 1.306-1.465 1.985-2.17.732.635 1.496 1.251 2.156 1.965z" fill="#006932"/><path d="m213.51 221.953c-.845 1.455-2.675 1.676-4.188 1.811-1.671.115-3.771-.234-4.396-2.045 2.815-.696 5.803-.571 8.584.234z" fill="none"/><path d="m211.795 50.862c-.21.871-1.16 1.336-1.729 1.98-.573-.575-1.148-1.146-1.721-1.705.596-.641 1.175-1.295 1.767-1.939.577.531 1.174 1.055 1.683 1.664z" fill="#006932"/><path d="m211.286 61.253c-.63.57-1.255 1.135-1.893 1.695-.63-.391-1.261-.78-1.886-1.166.605-.729 1.19-1.475 1.756-2.234.676.56 1.346 1.136 2.023 1.705z" fill="#006932"/><path d="m208.934 275.043c.359.436.723.875 1.069 1.324-.347-.443-.713-.883-1.069-1.324z" fill="#fff"/><path d="m208.724 85.389c.216.905.426 1.814.625 2.73-3.176.744-6.301 1.675-9.476 2.42-.21-.885-.415-1.766-.625-2.646 3.163-.83 6.328-1.645 9.476-2.504z" fill="#006932"/><path d="m208.411 274.389c.17.215.345.437.522.648-.186-.215-.357-.434-.534-.654 0 0 .007.006.012.006z" fill="#fff"/><path d="m208.781 387.113-1.86 5.85h-16.715v-.59h.806c.909 0 1.564-.295 1.96-.879.215-.34.335-1.121.335-2.336v-13.969c0-1.342-.147-2.185-.443-2.512-.421-.48-1.034-.709-1.852-.709h-.806v-.589h9.771v.589c-1.136-.015-1.942.096-2.402.313-.473.215-.785.5-.95.834-.175.33-.261 1.135-.261 2.4v13.604c0 .887.086 1.49.261 1.816.125.231.325.389.59.5.261.106 1.085.17 2.49.17h1.58c1.646 0 2.811-.131 3.479-.375.659-.24 1.284-.676 1.835-1.295.556-.621 1.109-1.603 1.67-2.926z" fill="#006932"/><path d="m208.425 173.507-.119 1.047c-9.479-1.111-19.08-1.166-28.569-.092-9.17 1.061-18.295 3.012-26.891 6.426-.936.41-1.931.779-2.854 1.25l-1.03-1.035c.58-.314 1.16-.65 1.75-.936 7.774-3.84 16.311-5.92 24.891-6.959 10.927-1.245 21.921-.984 32.822.299z" fill="#006932"/><path d="m207.866 36.258c-.228.795-.445 1.59-.67 2.385-2.325.78-4.605 1.705-6.94 2.46.195-.689.405-1.38.615-2.064 2.353-.875 4.66-1.86 6.995-2.781z" fill="#006932"/><path d="m204.309 52.104c2.774.205 4.176 3.635 3.301 6.03-2.181 5.47-7.118 9.61-12.766 11.16-4.141 1.305-9.12.989-12.476-2-2.37-1.979-3.551-4.915-4.5-7.765-4.04 2.314-4.155 7.859-7.83 10.524-1.07.79-2.41.39-3.596.181-2.505-3.421-.806-8.291 1.875-11.091-.574 2.095-1.79 4.21-1.244 6.45.335 1.445 2.318 1.785 3.25.686 1.805-1.84 2.475-4.44 3.885-6.556.806-1.385 2.08-2.396 3.351-3.335-.074-3.635.006-7.27-.056-10.9.94-1.01 1.95-1.955 3.07-2.76.005 4.211-.205 8.426-.11 12.631-.005 1.504 1.45 2.549 2.875 2.494 1.256-1.43 2.49-2.91 4.165-3.875.66-.39 1.852-1.436.846-2.1-1.653-.855-3.625-.715-5.42-1.086-.035-2.184.104-5.119 2.79-5.635 7.279-1.01 14.71-.18 21.914 1.08-.313 1.045-.725 2.205-1.824 2.65-2.936 1.266-6.59.585-9.159 2.734-1.146.955.229 2.691-.806 3.691-.444.449-1.056.664-1.609.934-.551-1.359-1.903-2.514-3.448-1.904-2.021.779-4.375 1.87-5.245 3.995.32 1.19 1.75 1.569 2.835 1.46 4.45-.28 8.601-2.46 11.91-5.355 1.168-1.013 2.312-2.428 4.022-2.338zm-.898 9.279c.875-.985 1.43-2.315 1.33-3.646-.229-1.685-2.5-2.095-3.729-1.225-3.311 2.13-6.325 4.971-10.216 6.01-2.944.775-5.875-.359-8.569-1.449.479 1.619 1.091 3.319 2.466 4.41 2.551 2.145 6.169 2.284 9.294 1.594 3.643-.824 6.942-2.913 9.424-5.694zm-9.716-10.449c1.994-1.23 4.341-1.68 6.358-2.859-2.733-1.19-5.771-1.57-8.729-1.301-1.638.176-3.37.315-4.767 1.275 2.474.723 4.832 1.749 7.138 2.885z" fill="#006932"/><path d="m206.915 280.283c.141.24.272.486.405.73h-.008c-.123-.243-.258-.49-.397-.73z" fill="#fff"/><path d="m199.496 330.604c3.3-.016 6.604-.057 9.91.023-2.547 2.17-5.355 3.996-7.978 6.066 1.029 3.17 2.146 6.313 3.085 9.514-2.795-1.75-5.229-4.119-8.08-5.719-2.726 1.779-5.192 3.93-7.915 5.725.939-3.205 2.064-6.35 3.114-9.52-2.715-2.066-5.52-4.025-8.21-6.125 3.352.039 6.7.01 10.056.023 1.063-3.109 1.904-6.289 3.075-9.355.971 3.127 1.912 6.262 2.943 9.368z" fill="#006932"/><path d="m202.821 281.453c.288.471.572.938.854 1.406h-.005c-.281-.47-.566-.935-.849-1.406z" fill="#fff"/><path d="m198.609 282.684c.404.545.802 1.096 1.188 1.646h-.005c-.381-.551-.782-1.101-1.183-1.646z" fill="#fff"/><path d="m197.609 15.022c1.222 1.43 1.824 3.426 1.569 5.285-.641 1.49-1.58 2.95-2.931 3.881-1.215.555-2.305-.541-3.305-1.061-.979.51-1.95 1.38-3.127 1.154-.875-.205-1.328-1.115-1.479-1.93-.396-2.205.24-4.789 2.221-6.055-.665 1.324-1.54 2.79-.994 4.32.193.785 1.114 1.395 1.864.89.694-.585 1.109-1.425 1.59-2.19.449.801.814 1.84 1.83 2.065 1.295.575 2.819-.729 2.646-2.08-.176-.944-.775-1.729-1.24-2.54.448-.537.408-2.103 1.356-1.739z" fill="#006932"/><path d="m194.945 277.824c.403.535.813 1.07 1.226 1.604-.415-.533-.824-1.074-1.234-1.609-.003-.001.002.005.008.005z" fill="#fff"/><path d="m194.859 284.689c.104.199.205.396.307.6h-.005c-.097-.201-.196-.4-.302-.6z" fill="#fff"/><path d="m194.814 8.333c.267 2.09-.08 4.189-.676 6.195-.551-1.125-.931-2.32-1.279-3.521.66-.884 1.297-1.788 1.955-2.674z" fill="#006932"/><path d="m194.469 25.667c-.046.586-.091 1.166-.131 1.75-.67-.074-1.335-.154-2-.234.221-.525.32-1.125.687-1.58.48.005.959.03 1.444.064z" fill="#006932"/><path d="m193.059 39.894 1.137.375c-.421.45-.829.905-1.239 1.36-4.063-4.41-8.26-8.85-13.404-12.006-2.141-1.114-4.649-2.689-7.115-1.639-2.323 1.149-2.681 4.299-1.563 6.43 1.556-.746 3.104-2.021 4.938-1.655 1.95.515 2.557 2.814 2.7 4.579-.08 2.281-.609 4.57-1.523 6.666-.506 1.045-1.325 2.27-2.625 2.265-1.847-.19-2.892-1.925-4.142-3.075-.285 2.365.689 4.705.29 7.061-.354 1.449-2.591 1.305-3.301.195-1.415-2.065-1.35-4.721-1.245-7.115.256 1.664.73 3.32 1.995 4.515 1.375-2.229.03-5 .641-7.46-1.693-3.891-2.676-8.445-1.199-12.555.756-2.23 3.029-3.785 5.396-3.6 4.602.125 8.285 3.284 11.545 6.194 3.191 2.88 5.884 6.244 8.714 9.465zm-19.194 1.773c3.045.261 2.56-5.779-.37-5.174-1.896 1.021-1.55 4.34.37 5.174z" fill="#006932"/><path d="m189.17 392.373v.59h-8.51v-.59c.858-.039 1.436-.18 1.739-.42.306-.244.46-.545.46-.898 0-.467-.216-1.205-.642-2.205l-1.284-3.08h-8.369l-1.439 3.385c-.359.837-.54 1.455-.54 1.871 0 .33.165.619.471.869.324.25.989.398 2.034.479v.59h-6.819v-.59c.904-.146 1.479-.354 1.75-.61.54-.515 1.142-1.541 1.796-3.104l7.608-17.761h.525l7.515 17.951c.604 1.438 1.155 2.375 1.642 2.805.497.423 1.183.673 2.063.718zm-8.715-7.779-3.646-8.717-3.733 8.717z" fill="#006932"/><path d="m176.809 375.877 3.646 8.717h-7.38z" fill="none"/><path d="m168.165 330.613c3.25-.039 6.5-.035 9.755-.014-2.39 2.309-5.305 3.979-7.864 6.1 1.045 3.18 2.142 6.35 3.114 9.555-2.725-1.814-5.215-3.975-7.955-5.756-2.84 1.566-5.279 3.965-8.069 5.705.972-3.189 2.08-6.334 3.125-9.5-2.613-2.1-5.494-3.854-8-6.084 3.274-.064 6.557-.021 9.835-.021 1.012-3.09 1.984-6.188 2.972-9.283 1.236 3.023 1.967 6.228 3.087 9.298z" fill="#006932"/><path d="m177.439 281.395c.023.094.051.188.074.289-.023-.102-.056-.199-.08-.295z" fill="#fff"/><path d="m177.349 249.389c-.755 1.756-1.875 3.34-3.351 4.609-.12 6.281-1.22 12.99-5.62 17.785-.279-1.18-.604-2.344-1-3.484-1.175 1.494-1.71 3.375-1.885 5.244-.325.156-.681.307-1.005.496-.551.305-1.03.705-1.21 1.352-.177.482-.347.975-.521 1.459l-1.369-.484c.409-1.221.665-2.485.295-3.76-.391-1.74-.784-3.485-1.113-5.24l.688-.131c.096.511.21 1.011.335 1.511.386 1.2.716 2.735 2.086 3.188-.016-3.305-.819-6.521-1.279-9.771l1.051-.146c.265 1.744.92 3.43 1.979 4.84.556-2.688.67-5.551-.04-8.201l1.319-.403c.67 2.24 1.62 4.403 2.825 6.41.148.028.443.08.59.104 1.825-3.422 1.396-7.52.84-11.205-.5-1.94-.984-3.889-1.395-5.854l1.13-.232c.085.42.18.84.29 1.256.229 1.146 1.229 1.806 2.26 2.175.221-2.375.149-4.775-.146-7.14l.557-.065c.271 2.385.83 4.76 1 7.146.568-.578 1.015-1.265 1.34-2z" fill="#006932"/><path d="m177.035 236.758c.068.227.135.451.205.676l-1.387.32c-.954.09-2.108.414-2.204 1.57-.204 1.465-.149 2.92.011 4.375l-.557.064c-.119-.99-.283-1.978-.479-2.949-.51-2.121-1.115-4.611-3.22-5.695 1.085 4.035.523 8.285 1.295 12.355l-1.13.231c-.58-2.785-.995-5.604-1.046-8.461-2.506 4.813-1.261 10.489-.329 15.563-1.19-1.07-1.99-2.459-2.632-3.904.035 2.484.432 4.959 1.146 7.344l-1.319.406c-.266-1-.648-1.971-1.171-2.891-.829 1.938-1.09 4.145-.77 6.25l-1.051.145c-.234-1.674-.381-3.354-.279-5.059-.564.635-.971 1.399-1.07 2.26-.39 2.604-.29 5.285.21 7.875l-.688.129c-.646-3.42-1.045-6.879-.699-10.369-1.165.57-2.096 1.549-2.415 2.834-1.176 3.977-.655 8.24.215 12.23.59 2.09 1.136 4.551 3.181 5.725.187-.465.375-.939.54-1.42l1.369.486c-.648 1.815-1.313 3.635-2.114 5.395-.733-.221-.915-1.145-1.465-1.686-.04-.045-.086-.084-.136-.119-.095-.076-.194-.137-.314-.185-.273.771-.585 1.563-.949 2.349l-1.351-.51c1.59-3.394 1.135-7.605-1.146-10.605-1.687 1.105-1.979 3.24-2.646 4.986-1.521-2.006-2.79-4.201-4.426-6.115-.62-.78-1.438-1.51-1.47-2.58-.812-4.85-1.665-10.541-5.886-13.67-.131 1.5.295 2.869.846 4.216l-1.062.403c-.436-1.18-1-2.313-1.681-3.375-.335 2.535-.92 5.021-1.595 7.479l-1.21-.334c.358-1.351.465-2.801.625-4.146.13-3.316.375-6.729-.512-9.961l-1.119.362-.011.183c-1.21 1.186-1.653 2.885-2.199 4.436-1.154 3.754-1.314 7.805-.5 11.646l-1.381.084c-.323-.709-.596-1.439-.659-2.234-.619-3.07.114-6.141.471-9.186v-.006c-2.005-4.814-3.05-10.23-1.535-15.347-.114-.295-.345-.892-.46-1.188v-.006c-.71-2.404.24-4.813 1.375-6.904-.064-.307-.125-.61-.175-.916l1.271-.061c3.024.561 4.984-2.176 6.774-4.109.495 1.642.68 3.351.64 5.063-.185 1.509-.55 3.086.057 4.554.909 2.766 1.351 5.651 1.5 8.555.104 1.686.023 3.479.909 4.99 1.409 2.631 3.439 4.948 5.841 6.721.914.594 2.516 1.559 3.306.299.648-1.434-.085-3.023.101-4.52.399-1.138 1.994-1.07 2.892-.57 1.755.936.05 3.125.658 4.605.302 1.231 1.932 1.135 2.767.516 2.479-1.721 4.51-4.105 5.785-6.846.89-1.82.909-3.904 1.675-5.771.875-2.201 1.436-4.545 1.455-6.92.005-1.785-.625-3.541-.29-5.326.813-1.1 2.085-.715 3.186-.35 1.021 1.35 2.449 2.479 4.215 2.541-.164-.336-.351-.66-.55-.978l.891-.25c.131-.313.381-.942.506-1.254.726.146 1.443.313 2.153.524l.814-.018c.007 2.029-.212 4.094.403 6.049zm-22.101 30.291c.387-2.625-.479-5.217-.386-7.846-1.503 2.24-2.338 6.205.386 7.846zm-2.264 5.349c1.011-3.939-.229-7.978-1.41-11.728-.935 1.054-1.255 2.438-1.529 3.771-1.108-.944-1.21-2.455-1.5-3.771-1.295 2.093-1.494 4.849-.363 7.058 1.021 2.036 2.787 3.635 4.802 4.67zm-18.17-37.164c.78-.775 1.33-1.729 1.774-2.721-1.017.561-2.021 1.131-3.029 1.688-.271.031-.814.096-1.09.131.494-1.568 1.448-2.916 2.398-4.232-2.575.601-4.608 3.063-4.676 5.715l-.09.06c.273.535.63.996 1.075 1.385 1.21-.153 2.205-.924 3.305-1.379.088-.162.253-.486.333-.647zm-.165 10.85c.726-1.895.521-4.01.165-5.961-2.38 1.875-3.226 5.74-1.43 8.295.465-.74 1.255-1.395 1.265-2.334z" fill="#006932"/><path d="m175.854 237.754c.437 2.664.807 5.355.774 8.064-.005 1.041-.215 2.076-.63 3.024-.325.732-.771 1.421-1.34 2-.17-2.387-.729-4.762-1-7.146-.16-1.455-.215-2.91-.011-4.375.098-1.153 1.252-1.477 2.207-1.567z" fill="none"/><path d="m176.469 219.709c1.437 3.395-.086 7 .149 10.504.005.166.01.336.01.506l-.813.016c-.062-.58-.114-1.155-.176-1.727l-.061.096c-.431-2.16-1.812-4.74-4.3-4.975-1.171-.201-2.085.615-2.892 1.32 1.8 1.025 3.271 2.51 4.142 4.41.198.529.408 1.063.625 1.604l-.892.25c-.336-.523-.711-1.02-1.114-1.488-1.602-1.365-3.426-2.416-5.319-3.295.186-1.807.154-3.967-1.562-5.057-1.801-1.85-3.938.875-5.983.33-2.62-.539-4.307-2.84-5.74-4.91-1.385 2.432-3.665 4.887-6.705 4.75-2.345-.289-4.944-1.744-7.194-.404-.67 2.234-2.556 3.711-4.688 4.465-.221-2.635 1.88-4.438 3.46-6.215-1.385.205-2.899.49-3.854 1.625-1.824 2.109-2.148 5.062-2.21 7.744l-1.271.061c-.375-2.145-.465-4.379.42-6.409 1.255-2.771 2.556-5.556 4.563-7.869 1.727-4.041 5.75-6.205 8.785-9.136 1.227-1.364 3.104-1.53 4.705-2.21 3.596-1.725 7.681-.459 11.449-.09 2.011 2.27 4.605 3.871 7.355 5.07 1.685 1.484 3.073 3.34 5.118 4.385.599 2.629 3.168 4.124 3.993 6.649zm-9.759-5.805c-.335.029-1.005.094-1.34.129.035-.305.108-.91.146-1.209-.404-.035-1.221-.105-1.625-.141-.063-.304-.193-.904-.261-1.209-.375.004-1.114.01-1.489.014.13-.295.386-.885.511-1.18-.812-.064-1.614-.129-2.421-.188.285-.481.58-.97.875-1.44-1.693-1.74-3.858-3.121-6.311-3.408-3.215-.605-6.354.552-9.17 1.992.005.33.011.991.016 1.321-2.91.955-5.285 2.99-7.279 5.259 2.319 1.356 4.649 2.696 6.966 4.067-.274-.896-.545-1.791-.807-2.681.915.189 1.83.396 2.745.595-.239-.834-.483-1.685-.716-2.511.511.16 1.54.476 2.051.636-.096-.455-.278-1.365-.375-1.813.625.363 1.25.738 1.875 1.125-.205-1.146-.239-2.303-.104-3.449.795 1.535 1.495 3.119 2.335 4.635.984-1.26 1.438-2.795 1.854-4.305.562.313 1.125.64 1.689.959.28-1.119.57-2.24.886-3.352.414.813.675 1.734.399 2.646-.235 1.33-1.545 2.395-1.011 3.836.239-.035.716-.104.954-.131-.068.272-.204.826-.271 1.096.521-.115 1.561-.35 2.08-.471-.085.34-.25 1.016-.33 1.35.42-.004 1.255-.02 1.67-.029.011.625.025 1.25.04 1.875.436-.115.88-.23 1.32-.34.06.4.17 1.199.229 1.605 2.189-1.128 3.859-3.064 4.869-5.283zm-26.18 4.315c-.512-.67-.915-1.51-1.727-1.859-1.75-.846-4.261.439-4.061 2.529 1.902-.43 3.848-.575 5.788-.67z" fill="#006932"/><path d="m175.639 229.008c.062.57.114 1.146.176 1.727-.711-.211-1.432-.381-2.154-.524-.125.313-.375.938-.505 1.254-.216-.539-.427-1.071-.625-1.604l.26.42c.955-.235 2.359-.034 2.79-1.176z" fill="none"/><path d="m174.8 49.192c.102 1.865-.01 3.771-.77 5.5-.275-1.43-.5-2.875-.73-4.31.495-.399.995-.794 1.5-1.19z" fill="#006932"/><path d="m175.58 229.104c-.431 1.142-1.835.939-2.79 1.176l-.26-.42c-.87-1.899-2.341-3.385-4.142-4.409.806-.705 1.721-1.521 2.892-1.32 2.489.232 3.869 2.812 4.3 4.973z" fill="none"/><path d="m173.104 243.764c.296 2.365.365 4.766.146 7.141-1.029-.37-2.029-1.03-2.26-2.176-.11-.414-.205-.834-.29-1.254-.771-4.07-.21-8.32-1.296-12.354 2.104 1.084 2.711 3.573 3.221 5.694.195.974.359 1.958.479 2.949z" fill="none"/><path d="m172.264 231.713c.199.316.386.641.551.977-1.767-.061-3.194-1.19-4.216-2.541.847.052 1.694.07 2.551.076.404.468.779.964 1.114 1.488z" fill="none"/><path d="m170.905 52.987c.479-.435.965-.869 1.454-1.299-.096 1.27.125 2.704-.704 3.779-.266-.823-.516-1.65-.75-2.48z" fill="#006932"/><path d="m170.965 253.559c.556 3.689.985 7.785-.84 11.205-.146-.025-.439-.074-.59-.104-1.205-2.005-2.155-4.171-2.825-6.41-.715-2.386-1.109-4.854-1.146-7.345.641 1.445 1.438 2.834 2.631 3.904-.932-5.07-2.177-10.75.329-15.561.051 2.855.466 5.676 1.046 8.461.409 1.965.895 3.91 1.395 5.85z" fill="none"/><path d="m171.149 230.225c-.854-.006-1.704-.024-2.551-.076-1.101-.364-2.37-.75-3.186.351l.03-.299c-3.48.014-6.961.055-10.438-.022 1.08-1.244 2.83-1.343 4.142-2.228-2.051-.341-3.977.694-5.211 2.271-1.743-.008-3.488-.008-5.229 0-1.245-1.563-3.17-2.65-5.22-2.244 1.33.828 3.068.924 4.125 2.191-2.95.098-5.9.025-8.852.045.039-1.715-.146-3.424-.641-5.063-1.79 1.936-3.75 4.67-6.774 4.108.062-2.687.386-5.637 2.21-7.743.955-1.138 2.472-1.42 3.854-1.625-1.58 1.772-3.681 3.58-3.46 6.215 2.135-.754 4.021-2.23 4.688-4.465 2.25-1.343 4.852.112 7.194.401 3.04.14 5.32-2.315 6.705-4.75 1.436 2.069 3.12 4.371 5.74 4.91 2.045.545 4.185-2.181 5.983-.33 1.715 1.09 1.744 3.25 1.562 5.06 1.904.877 3.73 1.927 5.329 3.293z" fill="none"/><path d="m165.415 230.498c-.335 1.785.295 3.541.29 5.326-.021 2.375-.58 4.719-1.455 6.92-.766 1.865-.785 3.949-1.675 5.77-1.275 2.74-3.307 5.125-5.785 6.846-.835.619-2.465.72-2.766-.516-.609-1.48 1.096-3.67-.659-4.605-.896-.5-2.49-.563-2.892.57-.186 1.494.551 3.086-.101 4.521-.79 1.26-2.391.295-3.305-.3-2.4-1.77-4.433-4.09-5.842-6.721-.886-1.51-.806-3.305-.908-4.99-.15-2.899-.592-5.789-1.5-8.555-.605-1.465-.24-3.045-.058-4.551 2.95-.02 5.9.051 8.853-.045-.063.445-.125.896-.19 1.352-.35-.041-1.055-.115-1.409-.149.034.271.104.813.142 1.084-1.932-.063-3.835.269-5.625.979 1.229 1.455 2.81 2.779 4.79 2.945 1.46.234 2.805-.506 4.073-1.121-.063 1.506-.104 3.016-.016 4.525.945-1.32.775-2.994.726-4.52-.068-1.769-.561-3.494-1.396-5.045 1.74-.009 3.485-.009 5.229 0-1.613 2.786-1.568 6.116-1.238 9.229l.715-.076c-.07-1.354-.13-2.705-.189-4.059 1.29.584 2.649 1.309 4.119 1.055 1.955-.176 3.466-1.535 4.721-2.926-1.8-.73-3.715-1.07-5.653-.98.035-.271.108-.816.146-1.094-.37.039-1.104.115-1.476.154-.017-.34-.056-1.017-.07-1.351 3.477.08 6.955.039 10.438.024zm-13.075 17.986c1.605-.156 3.735-.24 4.556-1.896-1.409-.064-2.823-.109-4.233-.174.17-1.371 1.54-2.076 1.83-3.395-1.222.295-2.387.924-3.66.948-.87-.229-1.63-.717-2.425-1.108.295 1.055.975 1.904 1.869 2.529.006.346.021 1.026.023 1.375-.875.08-1.75.166-2.619.266.944 1.604 3.053 1.42 4.659 1.455z" fill="none"/><path d="m165.389 258.654c.71 2.648.596 5.514.04 8.199-1.061-1.41-1.716-3.099-1.979-4.84-.32-2.105-.062-4.313.771-6.25.519.921.904 1.891 1.168 2.891z" fill="none"/><path d="m165.37 214.033c.335-.035 1.005-.1 1.34-.129-1.01 2.219-2.68 4.154-4.864 5.285-.061-.406-.171-1.205-.229-1.605-.44.109-.887.225-1.32.34-.015-.625-.029-1.25-.04-1.875-.415.01-1.25.025-1.67.029.08-.334.245-1.01.33-1.35-.521.121-1.562.354-2.08.471.064-.271.2-.82.271-1.096-.239.026-.716.096-.955.131-.534-1.441.773-2.506 1.011-3.836.273-.91.016-1.834-.399-2.646-.313 1.109-.604 2.23-.886 3.352-.564-.319-1.13-.646-1.689-.959-.414 1.51-.869 3.045-1.854 4.306-.84-1.517-1.54-3.101-2.335-4.636-.136 1.146-.102 2.306.104 3.449-.625-.387-1.25-.762-1.875-1.125.097.447.279 1.357.375 1.813-.511-.16-1.54-.476-2.05-.636.229.826.476 1.677.715 2.511-.915-.199-1.83-.404-2.745-.595.262.89.53 1.785.807 2.681-2.314-1.371-4.646-2.711-6.966-4.067 1.995-2.269 4.37-4.304 7.279-5.259-.005-.33-.011-.991-.016-1.321 2.814-1.439 5.955-2.598 9.17-1.992 2.45.287 4.615 1.667 6.312 3.406-.296.477-.591.961-.875 1.442.806.058 1.608.121 2.42.188-.125.295-.381.885-.511 1.18.375-.004 1.114-.01 1.489-.014.065.305.195.905.261 1.209.404.035 1.221.104 1.625.141-.041.297-.115.903-.15 1.207z" fill="none"/><path d="m164.49 274.039c.324-.189.68-.34 1.005-.496-.325.156-.681.311-1.005.496z" fill="#fff"/><path d="m162.399 262.158c.46 3.25 1.266 6.471 1.279 9.771-1.37-.449-1.7-1.984-2.086-3.188-.125-.5-.239-1-.335-1.511-.5-2.59-.6-5.271-.21-7.875.102-.854.506-1.625 1.07-2.26-.098 1.708.048 3.389.282 5.063z" fill="none"/><path d="m161.684 272.604c.37 1.273.114 2.541-.295 3.76-.165.48-.354.955-.54 1.421-2.045-1.175-2.591-3.636-3.181-5.726-.87-3.99-1.39-8.256-.215-12.229.319-1.285 1.25-2.265 2.415-2.834-.346 3.489.055 6.948.7 10.368.331 1.755.727 3.499 1.116 5.24z" fill="none"/><path d="m162.064 233.443c-1.256 1.391-2.767 2.75-4.722 2.926-1.47.254-2.829-.471-4.119-1.055.062 1.354.119 2.705.189 4.059l-.715.076c-.33-3.111-.375-6.441 1.238-9.23 1.234-1.574 3.16-2.609 5.211-2.27-1.312.885-3.062.98-4.142 2.225.017.334.056 1.01.07 1.35.37-.039 1.104-.114 1.476-.153-.035.274-.108.819-.146 1.094 1.945-.092 3.86.248 5.66.978zm-2.184.891c1.021-1.055-1.33-1.871-1.8-.811-.92 1.161 1.245 1.756 1.8.811z" fill="#006932"/><path d="m158.08 233.523c.47-1.063 2.819-.244 1.8.811-.555.945-2.72.35-1.8-.811z" fill="none"/><path d="m159.045 280.439c.051.035.096.074.136.119-.046-.044-.091-.083-.136-.119z" fill="#fff"/><path d="m157.82 392.373v.586h-7.075v-.586c.396-.01.67-.063.813-.174.142-.111.21-.266.21-.465 0-.246-.21-.631-.63-1.17l-4.46-5.705 3.689-3.4c.8-.721 1.245-1.17 1.364-1.359.091-.131.136-.266.136-.396 0-.205-.08-.379-.267-.539-.181-.151-.465-.24-.858-.261v-.524h6.335v.524c-.875.021-1.59.148-2.181.398-.562.244-1.194.686-1.896 1.314l-3.729 3.436 3.71 4.734c1.051 1.307 1.761 2.135 2.091 2.49.523.49.97.811 1.354.951.258.097.734.146 1.394.146z" fill="#006932"/><path d="m157.78 282.604c-1.091 2.347-2.671 4.521-5.275 5.176.346-1.551.21-3.149-.813-4.409-.449 1.489-.931 2.965-1.369 4.459-.57 1.935-.307 3.979-.61 5.95-1.061 2.796-3.604 4.716-6.439 5.47-.215.063-.436.11-.659.155-.221.039-.439.08-.664.109-.227.029-.445.051-.671.064-.704.039-1.274.32-1.734.75-.05.039-.095.084-.135.135-.921.955-1.341 2.506-1.41 3.766v.006c.141-.114.271-.239.391-.364.681-.692 1.175-1.562 1.864-2.229.186-.182.391-.352.615-.496.278-.045.489.01.635.115.436.318.341 1.135-.154 1.539-.971 1.016-1.766 2.795-.71 3.977.05.056.104.109.165.164.165-.004.314-.028.46-.069.141-.035.274-.091.399-.16.295-.149.545-.375.779-.635.5-.556.915-1.261 1.46-1.779.146-.135.301-.26.466-.362.22.229.64.676.854.897-.676.994-1.801 2.5-.904 3.489.141.16.329.306.585.431.851.254 1.489-.011 1.994-.521.814-.826 1.274-2.295 1.677-3.268.045-.129.108-.229.186-.305.284-.289.72-.205 1 .061.266.25.385.666.101 1.07-.074.65-.699 1.9-.274 2.375.12.141.33.215.676.189l.061 1.41c-.688.063-1.404-.07-2.109-.484-1.05.539-2.146 1.438-3.399 1.029-1.085-.234-1.67-1.275-2.38-2.021-.92-.049-2.021.387-2.761-.35-.534-.59-.774-1.375-1.141-2.051-.875-.324-1.625-.869-2.226-1.58-2.205-.359-4.16-1.478-6.239-2.224l.444-1.19c1.159-.185 1.58-1.461 2.234-2.31.306.19.925.569 1.233.756-.415.843-.824 1.688-1.215 2.535.556-.231 1.109-.479 1.665-.726.431.479.79 1.004 1.096 1.574 1.773-.404 1.824-2.555 3.104-3.586.931-1.033 2.396-1 3.649-1.25 2.479-.34 4.796-1.936 5.846-4.229.415-1.76.285-3.605.495-5.4-1.381-1.635-2.79-3.254-4.03-4.994l1.181-.545c.67.891 1.5 1.645 2.521 2.154-.835-1.854-3.256-4.051-1.865-6.145.274 1.805 1.131 3.449 2.586 4.58.369-.625.805-1.205 1.324-1.718-.245-1.063-.516-2.157-1.234-3-.734-.894-1.431-1.813-2.148-2.717l1.055-.94c.165-.121.49-.361.655-.48 2.561 2.811 4.97 5.74 7.034 8.936.279-.414.529-.852.739-1.301z" fill="#006932"/><path d="m155.285 271.494c2.279 2.994 2.733 7.209 1.146 10.6-.21.449-.46.887-.739 1.301-2.064-3.194-4.477-6.125-7.034-8.936-.165.119-.49.359-.655.48-1.135-1.564-2.364-3.041-3.535-4.566.12-2.895-.255-5.813-1.289-8.529-.399-1.189-.984-2.34-1.471-3.516-.55-1.344-.977-2.715-.846-4.215 4.221 3.131 5.074 8.82 5.886 13.67.029 1.07.851 1.801 1.47 2.58 1.636 1.916 2.905 4.111 4.426 6.115.66-1.744.955-3.878 2.641-4.984z" fill="none"/><path d="m156.894 246.588c-.818 1.656-2.948 1.74-4.556 1.896-1.604-.035-3.715.146-4.659-1.455.869-.103 1.744-.187 2.619-.266-.005-.349-.02-1.029-.023-1.375-.896-.625-1.574-1.478-1.869-2.529.795.395 1.555.879 2.425 1.106 1.273-.022 2.438-.651 3.66-.946-.29 1.315-1.66 2.021-1.83 3.395 1.409.065 2.823.109 4.233.174z" fill="#006932"/><path d="m154.55 259.203c-.095 2.631.771 5.221.386 7.846-2.726-1.641-1.891-5.606-.386-7.846z" fill="none"/><path d="m151.26 260.674c1.182 3.75 2.421 7.783 1.41 11.725-2.015-1.035-3.779-2.635-4.805-4.67-1.131-2.209-.932-4.965.363-7.055.29 1.314.392 2.824 1.5 3.77.277-1.335.597-2.719 1.532-3.77z" fill="none"/><path d="m150.104 235.264c.052 1.525.222 3.199-.726 4.521-.09-1.511-.05-3.021.016-4.522-1.271.612-2.613 1.354-4.073 1.118-1.98-.166-3.563-1.487-4.79-2.942 1.79-.715 3.693-1.045 5.625-.98-.035-.27-.105-.814-.142-1.084.354.035 1.062.109 1.409.15.065-.455.131-.906.19-1.354-1.057-1.271-2.796-1.362-4.125-2.19 2.05-.406 3.975.684 5.22 2.244.837 1.545 1.327 3.273 1.396 5.039zm-4.085-1.295c-1.113 1.055 1.535 2.18 1.944.795-.183-.885-1.229-.985-1.944-.795zm-3.425-.35c-1.551 1.014 2.01 2.379 1.819.725-.163-.836-1.163-.905-1.819-.725z" fill="#006932"/><path d="m149.094 278.6c.721.84.989 1.938 1.234 3-.521.51-.955 1.09-1.325 1.715-1.455-1.131-2.311-2.774-2.585-4.58-1.391 2.095 1.03 4.289 1.865 6.146-1.021-.51-1.852-1.267-2.521-2.151-.858-1.146-1.46-2.515-1.858-3.865-.65-1.891.305-3.785.778-5.59.807.824 1.545 1.711 2.262 2.615.721.899 1.415 1.819 2.15 2.71z" fill="none"/><path d="m149.014 392.373v.586h-7.391v-.586c.74 0 1.3-.084 1.67-.264.215-.115.396-.295.511-.535.159-.34.239-.945.239-1.801v-13.279c0-1.666-.029-2.686-.125-3.064-.064-.365-.194-.631-.359-.775-.17-.135-.386-.204-.659-.204-.221 0-.556.09-1 .271l-.274-.586 4.325-1.789h.729v14.516 4.818c0 .939.08 1.564.189 1.859.135.295.319.506.569.635.246.122.781.188 1.576.198z" fill="#006932"/><path d="m148.615 288.264c-.21 1.795-.08 3.641-.495 5.398-1.05 2.295-3.365 3.891-5.846 4.23-1.256.25-2.721.215-3.649 1.25-1.279 1.026-1.33 3.18-3.104 3.586-.306-.57-.664-1.099-1.096-1.576-.555.246-1.108.49-1.664.725.391-.85.8-1.693 1.215-2.533-.311-.186-.931-.563-1.233-.756-.655.846-1.075 2.125-2.235 2.307-.079.015-.159.023-.244.023-.25-1.92.944-3.734 2.71-4.426 1.755-.119 3.614.186 5.261-.6 2.979-1.199 4.523-4.519 4.556-7.59-.017-2.5.045-5.009.233-7.494.477.854 1.006 1.67 1.564 2.459 1.237 1.741 2.646 3.36 4.027 4.997z" fill="none"/><path d="m148 274.939-1.055.94c-.717-.901-1.455-1.786-2.262-2.61-.476 1.805-1.431 3.699-.778 5.59.398 1.354 1 2.719 1.858 3.865l-1.181.545c-.561-.791-1.09-1.605-1.564-2.461-.188 2.487-.25 4.994-.233 7.494-.03 3.071-1.575 6.391-4.557 7.592-1.646.783-3.505.479-5.26.6-1.766.689-2.961 2.504-2.711 4.424.086 0 .165-.01.245-.023l-.444 1.193c-.034-.014-.068-.027-.104-.039-.937-.266-1.234-1.363-1.187-2.221.131-2.145 1.774-3.979 3.716-4.754 1.766-.346 3.694.199 5.369-.641 2.12-.984 3.262-3.349 3.387-5.599.119-2.657-.021-5.34.363-7.981.484-3.16.354-6.369.852-9.525-.865.705-1.471 1.57-1.925 2.516l-1.091-.6c2.704-4.311 2.949-9.791 1.204-14.51l1.062-.406c.484 1.176 1.069 2.326 1.47 3.516 1.035 2.715 1.41 5.637 1.29 8.529 1.171 1.525 2.401 3.004 3.536 4.566z" fill="#006932"/><path d="m147.965 234.764c-.409 1.385-3.06.26-1.944-.795.713-.19 1.759-.09 1.944.795z" fill="none"/><path d="m136.724 330.404c3.21.494 6.585-.041 9.854.264-2.49 2.201-5.335 3.945-7.896 6.063 1.029 3.154 2.17 6.279 3.034 9.482-2.68-1.834-5.17-3.938-7.88-5.719-2.835 1.635-5.35 3.896-8.055 5.779.81-3.199 2.12-6.244 2.975-9.424l-.119-.316c-2.495-2.07-5.313-3.725-7.726-5.895 3.266-.104 6.535-.048 9.8-.029 1.035-3.104 1.99-6.229 3.016-9.326 1.183 2.975 1.863 6.131 2.997 9.121z" fill="#006932"/><path d="m144.415 234.344c.188 1.654-3.37.289-1.819-.725.654-.18 1.654-.111 1.819.725z" fill="none"/><path d="m142.609 299.404c.226-.045.444-.096.659-.156-.214.061-.433.111-.659.156z" fill="#fff"/><path d="m141.274 299.578c.226-.014.443-.035.671-.063-.228.024-.445.055-.671.065-.704.039-1.274.319-1.734.744.46-.426 1.03-.705 1.734-.746z" fill="#fff"/><path d="m141.17 392.373v.59h-7.205v-.59h.312c.681 0 1.141-.094 1.409-.305.267-.205.466-.504.564-.904.045-.16.064-.648.064-1.484v-5.994c0-1.336-.176-2.301-.511-2.896-.341-.606-.921-.916-1.75-.916-1.086 0-2.176.53-3.261 1.59l-.47-.444c1.699-2.035 3.318-3.06 4.87-3.06.795 0 1.475.199 2.05.604.568.39 1.015 1.045 1.37 1.959.229.632.34 1.615.34 2.931v6.229c0 .905.075 1.53.226 1.856.104.269.306.474.55.625.277.133.746.209 1.442.209z" fill="#006932"/><path d="m140.644 258.734c1.745 4.719 1.5 10.199-1.204 14.51-.494-.375-.989-.746-1.479-1.115-.324.262-.976.771-1.3 1.025-1.426-2.621-.557-5.666.154-8.361.188-.648.375-1.299.556-1.955.675-2.459 1.26-4.943 1.595-7.479.678 1.059 1.244 2.194 1.678 3.375z" fill="none"/><path d="m139.439 273.244 1.091.6c-1 2.086-1.262 4.592-1.91 6.785-.979-2.564-2.689-4.729-4.13-7.041-.472-.875-1.61-.232-2.347-.289.25-1.801.682-3.67.222-5.471-.352-.934-.875-1.809-1.301-2.725l1.381-.084c.539-1 1-2.06 1.693-2.961.227 1.096.399 2.205.579 3.315.73-.834 1.165-1.819 1.44-2.875l1.21.336c-.182.653-.365 1.31-.557 1.955-.71 2.694-1.579 5.739-.153 8.358.324-.254.975-.766 1.3-1.024.493.375.988.746 1.482 1.121z" fill="#006932"/><path d="m138.804 216.359c.812.35 1.215 1.188 1.727 1.858-1.94.097-3.887.238-5.785.671-.201-2.089 2.308-3.374 4.058-2.529z" fill="none"/><path d="m139.54 300.328c-.05.045-.095.09-.135.135.04-.049.085-.094.135-.135z" fill="#fff"/><g fill="none"><path d="m136.274 248.395c.886 3.234.641 6.646.511 9.959-.16 1.351-.267 2.801-.625 4.148-.274 1.051-.71 2.041-1.439 2.875-.181-1.113-.354-2.225-.58-3.318-.693.904-1.154 1.961-1.693 2.961-.815-3.842-.655-7.893.5-11.646 1.505-.972 2.375-2.621 2.198-4.437l.012-.18z"/><path d="m136.314 383.684v5.994c0 .836-.021 1.324-.064 1.484-.101.4-.3.701-.564.906-.271.209-.729.305-1.409.305h-.312v.59h-1.27v-.59c-.79 0-1.32-.064-1.592-.211-.255-.129-.465-.359-.613-.67-.115-.229-.165-.84-.165-1.814v-7.725c.153-.176.31-.336.47-.49 1.085-1.061 2.176-1.59 3.261-1.59.829 0 1.409.305 1.75.914.333.596.508 1.563.508 2.897z"/><path d="m135.144 248.939c.177 1.813-.693 3.465-2.198 4.434.544-1.549.988-3.25 2.198-4.434z"/><path d="m136.274 232.514c-.444.994-.994 1.945-1.774 2.721.056-.17.165-.506.221-.676-.37-.09-1.104-.266-1.476-.354 1.01-.56 2.015-1.131 3.029-1.691z"/><path d="m134.5 240.123c.354 1.951.561 4.066-.165 5.961-.045-1.99.175-3.975.165-5.961z"/><path d="m134.719 234.559c-.056.17-.165.506-.221.676-.08.16-.245.484-.33.646-1.1.455-2.095 1.228-3.305 1.382-.445-.392-.802-.853-1.075-1.388l.09-.06c.735-.53 1.479-1.057 2.275-1.479.272-.035.818-.101 1.09-.131.372.088 1.106.264 1.476.354z"/><path d="m134.5 240.123c.01 1.986-.21 3.971-.165 5.961-.01.939-.8 1.594-1.266 2.334-1.795-2.555-.949-6.42 1.431-8.295z"/><path d="m134.554 230.1c-.95 1.318-1.904 2.664-2.398 4.234-.796.424-1.54.949-2.275 1.48.064-2.65 2.098-5.115 4.673-5.714z"/></g><path d="m132.695 392.373v.59h-7.235v-.59h.325c.745 0 1.245-.184 1.5-.549.265-.385.396-1.096.396-2.146v-5.404c0-1.744-.04-2.805-.12-3.186-.08-.385-.188-.641-.363-.791-.155-.125-.387-.193-.655-.193-.312 0-.654.076-1.062.229l-.238-.58 4.396-1.789h.689v3.054l.47.446c-.159.154-.313.313-.47.49v7.729c0 .975.05 1.584.165 1.813.148.313.358.541.613.67.269.143.799.207 1.589.207z" fill="#006932"/><path d="m129.34 238.334c-1.515 5.115-.47 10.529 1.535 15.344-1.154-.479-2.444-1.109-2.851-2.398-1.477-4.579-1.699-9.885.854-14.135.117.298.346.894.462 1.189z" fill="none"/><path d="m124.984 389.939v.889c-1.189 1.596-2.329 2.396-3.426 2.396-.521 0-.936-.17-1.238-.545-.313-.355-.472-.97-.48-1.83-1.5 1.157-2.435 1.83-2.819 2.01-.568.27-1.186.397-1.835.397-1.005 0-1.824-.342-2.483-1.026-.665-.695-.979-1.604-.979-2.724 0-.721.17-1.321.477-1.846.443-.729 1.185-1.404 2.271-2.045 1.074-.636 2.869-1.406 5.375-2.326v-.56c0-1.461-.24-2.455-.695-2.985-.454-.545-1.125-.813-2.01-.813-.66 0-1.2.18-1.585.539-.405.359-.596.773-.596 1.244l.023.922c0 .494-.119.869-.375 1.125-.26.273-.573.402-.979.402-.405 0-.72-.135-.976-.414-.25-.273-.375-.66-.375-1.131 0-.91.46-1.76 1.398-2.523.937-.756 2.25-1.141 3.94-1.141 1.29 0 2.354.221 3.185.654.625.326 1.096.84 1.392 1.535.188.451.29 1.381.29 2.791v4.93c0 1.391.021 2.24.079 2.549.046.313.137.521.256.631.136.105.266.154.426.154.175 0 .324-.029.454-.109.211-.136.655-.515 1.285-1.15zm-5.144-.125v-5.541c-1.625.641-2.648 1.086-3.13 1.34-.84.471-1.444.955-1.811 1.465-.354.518-.54 1.066-.54 1.682 0 .75.226 1.391.686 1.891.465.504.995.75 1.59.75.81-.003 1.875-.528 3.205-1.587z" fill="#006932"/><path d="m119.84 384.273v5.541c-1.33 1.059-2.395 1.584-3.205 1.584-.595 0-1.125-.244-1.59-.75-.46-.5-.686-1.144-.686-1.894 0-.61.186-1.161.54-1.68.364-.511.971-.996 1.811-1.466.479-.249 1.505-.694 3.13-1.335z" fill="none"/><path d="m107.26 383.475c1.024.969 1.529 2.17 1.529 3.578 0 1.07-.335 2.105-1 3.086-.687.975-1.615 1.693-2.8 2.148-1.187.451-2.99.676-5.405.676h-.359v-1.135c1.937 0 3.396-.436 4.409-1.301 1.011-.855 1.517-1.93 1.517-3.199 0-.84-.239-1.641-.699-2.416-.466-.77-1.227-1.379-2.255-1.824-1.025-.443-2.296-.67-3.812-.67l.016-1.141h.176c1.54 0 2.705-.164 3.489-.5.773-.33 1.375-.844 1.789-1.525.399-.688.604-1.43.604-2.25 0-1.26-.515-2.334-1.535-3.219-1.023-.885-2.523-1.33-4.5-1.33v-1.076h.296c1.734 0 3.135.137 4.17.381 1.597.387 2.807 1.057 3.646 2.029.845.977 1.26 2.09 1.26 3.352 0 1.08-.335 2.045-.989 2.898-.653.852-1.625 1.49-2.898 1.906 1.485.315 2.601.827 3.351 1.532z" fill="#006932"/><path d="m105.149 387.328c0 1.271-.506 2.346-1.517 3.201-1.015.865-2.475 1.299-4.409 1.299-1.21 0-2.415-.145-3.646-.434v-8.842c.271-.039.646-.087 1.12-.099.465-.026 1.023-.039 1.685-.039 1.517 0 2.785.229 3.813.67 1.028.444 1.789 1.06 2.255 1.824.46.781.699 1.58.699 2.42z" fill="none"/><path d="m102.925 373.783c1.021.885 1.535 1.961 1.535 3.221 0 .82-.205 1.561-.604 2.25-.414.682-1.016 1.195-1.789 1.525-.784.334-1.949.5-3.489.5-.062 0-.115 0-.176 0-.534-.006-1.029-.021-1.484-.055-.495-.041-.955-.101-1.335-.166v-8.265c.846-.229 1.79-.344 2.846-.344 1.97.004 3.47.449 4.496 1.334z" fill="none"/><path d="m99.224 391.828v1.135h-9.818v-.59h.81c.892 0 1.535-.273 1.926-.854.239-.365.364-1.16.364-2.359v-13.971c0-1.33-.154-2.174-.455-2.519-.409-.471-1.023-.7-1.835-.7h-.81v-.595h9.02v1.074c-1.055 0-2 .114-2.845.346v8.265c.38.065.84.125 1.335.164.455.032.95.051 1.484.055l-.017 1.141c-.659 0-1.22.012-1.685.039-.477.012-.852.057-1.12.098v8.84c1.231.287 2.436.431 3.646.431z" fill="#006932"/><path d="m83.255 347.418c2.306.984 4.854 2.359 5.495 5.004-1.891 1.348-4.305 1.24-6.489 1.625-2.875.422-5.955 1-8.165 3.035-1.726 1.586-2.444 3.977-2.398 6.271.005 5.705-.021 11.41.02 17.112-2.563-.987-5.449-.907-7.925.308-.08-6.295.109-12.599-.095-18.885-.021-3.404-2.771-6.095-5.892-6.984-3.521-1.336-7.521-.75-10.904-2.465.614-2.656 3.154-4.066 5.466-5.051 4.738-1.91 9.898-2.548 14.975-2.609 5.386-.009 10.881.604 15.912 2.639z" fill="none"/><path d="m61.005 362.404c.035 10.795.045 21.594-.005 32.389.075 1.893-1.109 4.063-3.215 4.08-15.602-.045-31.205.025-46.807-.039 4.392-5.631 8.95-11.125 13.302-16.785-3.881-5.609-7.815-11.193-11.49-16.936 15.125-.025 30.25.025 45.375.025.905-.954 1.854-1.868 2.84-2.734z" fill="none"/></svg>