<svg id="Layer_1" data-name="Layer 1" xmlns="http://www.w3.org/2000/svg" viewBox="0 0 500 70.9"><defs><style>.cls-1{fill:#008269;}.cls-2{fill:#576268;}</style></defs><title>HBL logo vector</title><rect class="cls-1" width="14.55" height="62.65"/><polygon class="cls-1" points="50.35 0.1 50.35 24.09 31.17 24.09 18.49 36.88 50.45 36.88 50.45 62.65 65 62.65 65 0 50.45 0 50.35 0.1"/><path class="cls-1" d="M384.43,493.66c5.61-3.15,7.38-7.48,7.18-13.38-.19-7.27-4.52-15.44-17.6-15.44H330.15v62.65h45.92C394.66,527,402,500.05,384.43,493.66Zm-11.61,22.61L345,516.5V476.44h26.87a5.94,5.94,0,0,1,5.52,6.2c0,5.86-6.44,6.43-6.44,6.43H361L348.8,501.71l23.9-.46c-.57.11,7.29.91,7.29,7.85S372.82,516.27,372.82,516.27Z" transform="translate(-250 -464.55)"/><polygon class="cls-1" points="181.34 50.25 170.43 50.25 170.43 0.49 156.07 0.49 156.07 63.04 156.17 63.04 181.44 63.04 200.62 63.04 213.3 50.25 181.34 50.25"/><path class="cls-2" d="M546.79,465.06H542v8.22H533l-2.68,4.46H542v9.11h5V465.06h-.18Z" transform="translate(-250 -464.55)"/><polygon class="cls-2" points="279.11 0.52 274.29 0.52 274.29 22.3 279.29 22.3 279.29 0.52 278.93 0.52 279.11 0.52"/><rect class="cls-2" x="354.11" y="0.52" width="5" height="21.78"/><polygon class="cls-2" points="324.82 22.3 318.93 22.3 317.32 17.83 308.93 17.83 311.07 13.91 315.72 13.91 312.5 5.16 306.07 22.3 300.18 22.3 309.29 0.52 315.72 0.52 324.82 22.3"/><path class="cls-2" d="M596.43,474.88c1.07-.54,2.5-1.6,2.5-4.46,0-2.5-1.07-5.54-6.43-5.54H577.86v22h14.46c5.89,0,7.51-4.11,7.51-6.61A5.37,5.37,0,0,0,596.43,474.88Zm-5.72,7.95.19.17h-8V468.9h7.5c2.86,0,3.39.89,3.39,2.14,0,2-1.25,2.14-2.5,2.32h-4.82l-2.5,4.28h7.5c1.43,0,3,.37,3,2.51C594.46,482.47,593,482.83,590.71,482.83Z" transform="translate(-250 -464.55)"/><path class="cls-2" d="M633.22,474.88c1.07-.54,2.49-1.6,2.49-4.46,0-2.5-1.06-5.54-6.42-5.54H614.64v22h14.47c5.89,0,7.5-4.11,7.5-6.61A5.36,5.36,0,0,0,633.22,474.88Zm-5.9,7.95.36.17h-8V468.9h7.51c2.85,0,3.39.89,3.39,2.14,0,2-1.25,2.14-2.5,2.32h-5l-2.5,4.28H628c1.43,0,3,.37,3,2.51C631.07,482.47,629.64,482.83,627.32,482.83Z" transform="translate(-250 -464.55)"/><path class="cls-2" d="M666.59,475c1-.57,2.34-1.66,2.34-4.39,0-2.49-1.07-5.53-6.43-5.53H647.86v21.79h14.46c5.89,0,7.5-4.11,7.5-6.61A5.34,5.34,0,0,0,666.59,475Zm-6.05,7.85.35.17h-8V468.9h7.5c2.86,0,3.39.89,3.39,2.14,0,2-1.25,2.14-2.5,2.32h-5l-2.5,4.28h7.5c1.43,0,3,.37,3,2.51C664.29,482.47,662.86,482.83,660.54,482.83Z" transform="translate(-250 -464.55)"/><polygon class="cls-2" points="466.43 0.52 471.43 0.52 471.43 22.3 465.71 22.3 454.47 7.12 454.47 7.12 454.47 22.3 449.46 22.3 449.46 0.52 455.54 0.52 466.43 15.69 466.43 15.69 466.43 0.52"/><polygon class="cls-2" points="491.79 0.34 499.11 0.34 489.64 9.08 500 22.12 492.68 22.12 485.54 12.48 482.32 15.52 482.32 22.3 476.96 22.3 476.96 0.52 482.32 0.52 482.32 9.98 491.97 0.52 491.79 0.34"/><polygon class="cls-2" points="446.25 22.3 440.36 22.3 438.75 17.83 430.36 17.83 432.5 13.9 437.14 13.9 433.93 5.16 427.5 22.3 421.61 22.3 430.71 0.52 437.14 0.52 446.25 22.3"/><path class="cls-2" d="M586.08,512.59l2.64-4.57h-6.16l-2.64,4.57Z" transform="translate(-250 -464.55)"/><path class="cls-2" d="M598.57,535.45l2.64-4.57h-6.16l-2.64,4.57Z" transform="translate(-250 -464.55)"/><path class="cls-2" d="M607.37,535.45l2.64-4.57h-6.16l-2.64,4.57Z" transform="translate(-250 -464.55)"/><path class="cls-2" d="M686.7,535.45l2.63-4.57h-6.15l-2.64,4.57Z" transform="translate(-250 -464.55)"/><path class="cls-2" d="M695.49,535.45l2.64-4.57H692l-2.64,4.57Z" transform="translate(-250 -464.55)"/><path class="cls-2" d="M712.38,535.45l2.64-4.57h-6.16l-2.64,4.57Z" transform="translate(-250 -464.55)"/><path class="cls-2" d="M621.26,535.45l2.64-4.57h-6.15l-2.64,4.57Z" transform="translate(-250 -464.55)"/><path class="cls-2" d="M662.07,535.45l2.64-4.57h-6.16l-2.63,4.57Z" transform="translate(-250 -464.55)"/><polygon class="cls-2" points="351.38 34.85 323.06 34.85 318.32 39.42 346.81 39.42 351.38 34.85"/><polygon class="cls-2" points="373.02 57.36 362.47 57.36 362.47 49.09 357.9 53.66 357.9 57.19 347.34 57.19 347.34 48.92 342.59 53.49 342.59 57.01 323.06 57.01 323.06 40.3 318.32 40.3 318.32 57.01 278.74 57.01 278.74 48.74 274.17 53.31 274.17 61.59 373.2 61.59 377.77 57.01 377.77 48.74 373.2 53.31 373.2 56.84 373.02 57.36"/><path class="cls-2" d="M738.41,509.42h-15.3l-4.58,4.75h20.06a3.14,3.14,0,0,1,3.16,3.16v4.58H713.09v-8.27l-4.58,4.57v3.52h-8.27v-8.26L695.67,518v3.52H684.94v-8.27l-4.75,4.57v3.52H641.84v-8.27l-4.57,4.58V526H741.75l4.75-4.58v-4.57a7.8,7.8,0,0,0-7.74-7.74Z" transform="translate(-250 -464.55)"/></svg>