<svg xmlns="http://www.w3.org/2000/svg" viewBox="0 0 1134.75 1333.35" shape-rendering="geometricPrecision" text-rendering="geometricPrecision" image-rendering="optimizeQuality" fill-rule="evenodd" clip-rule="evenodd"><g fill-rule="nonzero"><path d="M103.33 263.33c-11.58 0-21.33 4.06-26.23 12.02-5.07 8.22-4.28 18.8 1.1 29.5l130.02 225.07c.22.44.22.7 0 1.09L3.9 891.57c-5.33 10.62-5.07 21.28 0 29.5 4.9 7.91 13.55 13.11 25.13 13.11h192.3c28.76 0 42.61-19.41 52.45-37.16 0 0 199.81-353.39 207.6-367.12-.8-1.27-132.21-230.54-132.21-230.54-9.58-17.04-24.04-36.05-53.54-36.05h-192.3z" fill="#005a5f"/><path d="M911.2.01c-28.72 0-41.17 18.1-51.48 36.63 0 0-414.28 734.67-427.91 758.8.7 1.31 273.24 501.3 273.24 501.3 9.54 17.04 24.26 36.62 53.72 36.62h192.08c11.59 0 20.63-4.37 25.52-12.28 5.12-8.21 4.98-19.06-.39-29.71l-271.1-495.31c-.13-.19-.2-.41-.2-.63 0-.22.07-.44.2-.63l425.77-752.81c5.34-10.62 5.47-21.46.39-29.67-4.9-7.91-13.99-12.28-25.57-12.28H911.21v.01z" fill="#d4d600"/></g></svg>